<svg width="60" height="50" viewBox="0 0 60 50" fill="none" xmlns="http://www.w3.org/2000/svg">
<path d="M45.9 5.55556C51 9.72222 54 15.5556 54 22.2222C54 34.4444 43.2 44.4444 30 44.4444C16.8 44.4444 6 34.4444 6 22.2222C6 15.5556 9.3 9.72222 14.1 5.55556H45.9ZM48 0H12L10.2 1.38889C3.6 6.66667 0 14.1667 0 22.2222C0 37.5 13.5 50 30 50C46.5 50 60 37.5 60 22.2222C60 14.1667 56.4 6.66667 49.8 1.38889L48 0ZM33 12.5C33 14.7222 35.1 16.6667 37.5 16.6667C39.9 16.6667 42 14.7222 42 12.5C42 10.2778 39.9 8.33333 37.5 8.33333C35.1 8.33333 33 10.2778 33 12.5ZM18 12.5C18 14.7222 20.1 16.6667 22.5 16.6667C24.9 16.6667 27 14.7222 27 12.5C27 10.2778 24.9 8.33333 22.5 8.33333C20.1 8.33333 18 10.2778 18 12.5ZM15 27.7778C18.3 27.7778 21 25.2778 21 22.2222C21 19.1667 18.3 16.6667 15 16.6667C11.7 16.6667 9 19.1667 9 22.2222C9 25.2778 11.7 27.7778 15 27.7778ZM28.5 33.3333C28.5 30.2778 25.8 27.7778 22.5 27.7778C19.2 27.7778 16.5 30.2778 16.5 33.3333C16.5 36.3889 19.2 38.8889 22.5 38.8889C25.8 38.8889 28.5 36.3889 28.5 33.3333ZM30 27.7778C33.3 27.7778 36 25.2778 36 22.2222C36 19.1667 33.3 16.6667 30 16.6667C26.7 16.6667 24 19.1667 24 22.2222C24 25.2778 26.7 27.7778 30 27.7778ZM43.5 33.3333C43.5 30.2778 40.8 27.7778 37.5 27.7778C34.2 27.7778 31.5 30.2778 31.5 33.3333C31.5 36.3889 34.2 38.8889 37.5 38.8889C40.8 38.8889 43.5 36.3889 43.5 33.3333ZM51 22.2222C51 19.1667 48.3 16.6667 45 16.6667C41.7 16.6667 39 19.1667 39 22.2222C39 25.2778 41.7 27.7778 45 27.7778C48.3 27.7778 51 25.2778 51 22.2222Z" fill="#acacac"/>
</svg>

