<svg width="60" height="60" viewBox="0 0 60 60" fill="" xmlns="http://www.w3.org/2000/svg">
<path d="M16.5 49.0909C16.5 51.2727 14.4 53.1818 12 53.1818C9.6 53.1818 7.5 51.2727 7.5 49.0909C7.5 46.9091 9.6 45 12 45C14.4 45 16.5 46.9091 16.5 49.0909ZM48 45C45.6 45 43.5 46.9091 43.5 49.0909C43.5 51.2727 45.6 53.1818 48 53.1818C50.4 53.1818 52.5 51.2727 52.5 49.0909C52.5 46.9091 50.4 45 48 45ZM48 38.1818H47.1C53.1 33.8182 57 26.7273 57 19.0909C57 11.4545 53.1 4.36364 47.1 0H12.9C6.9 4.36364 3 11.4545 3 19.0909C3 26.7273 6.9 33.8182 12.9 38.1818H12C5.4 38.1818 0 43.0909 0 49.0909C0 55.0909 5.4 60 12 60H48C54.6 60 60 55.0909 60 49.0909C60 43.0909 54.6 38.1818 48 38.1818ZM9 19.0909C9 13.9091 11.4 9 15.3 5.45455H44.7C48.6 9 51 13.9091 51 19.0909C51 29.7273 41.7 38.1818 30 38.1818C18.3 38.1818 9 29.7273 9 19.0909ZM48 54.5455H12C8.7 54.5455 6 52.0909 6 49.0909C6 46.0909 8.7 43.6364 12 43.6364H48C51.3 43.6364 54 46.0909 54 49.0909C54 52.0909 51.3 54.5455 48 54.5455ZM32.7 11.7273C32.7 13.6364 34.5 15.2727 36.6 15.2727C38.7 15.2727 40.5 13.6364 40.5 11.7273C40.5 9.81818 38.7 8.18182 36.3 8.18182C34.2 8.18182 32.7 9.81818 32.7 11.7273ZM19.8 11.7273C19.8 13.6364 21.6 15.2727 23.7 15.2727C25.8 15.2727 27.6 13.6364 27.6 11.7273C27.6 9.81818 25.8 8.18182 23.7 8.18182C21.3 8.18182 19.8 9.81818 19.8 11.7273ZM17.1 24.5455C20.1 24.5455 22.2 22.3636 22.2 19.9091C22.2 17.4545 19.8 15.2727 17.1 15.2727C14.4 15.2727 12 17.1818 12 19.9091C12 22.3636 14.4 24.5455 17.1 24.5455ZM28.8 29.1818C28.8 26.7273 26.4 24.5455 23.7 24.5455C20.7 24.5455 18.6 26.7273 18.6 29.1818C18.6 31.9091 21 33.8182 23.7 33.8182C26.4 33.8182 28.8 31.9091 28.8 29.1818ZM30 24.5455C33 24.5455 35.1 22.3636 35.1 19.9091C35.1 17.4545 32.7 15.2727 30 15.2727C27.3 15.2727 24.9 17.4545 24.9 19.9091C24.9 22.3636 27.3 24.5455 30 24.5455ZM41.7 29.1818C41.7 26.7273 39.3 24.5455 36.6 24.5455C33.6 24.5455 31.5 26.7273 31.5 29.1818C31.5 31.9091 33.9 33.8182 36.6 33.8182C39.3 33.8182 41.7 31.9091 41.7 29.1818ZM48 19.9091C48 17.4545 45.6 15.2727 42.9 15.2727C39.9 15.2727 37.8 17.4545 37.8 19.9091C37.8 22.6364 40.2 24.5455 42.9 24.5455C45.6 24.5455 48 22.3636 48 19.9091Z" fill="#acacac"/>
</svg>
