<svg style="filter: drop-shadow(3px 5px 2px rgb(0 0 0 / 0.4));" width="45" height="61" viewBox="0 0 65 69" fill="none" xmlns="http://www.w3.org/2000/svg">
<path d="M32.5 37.5C30.4635 37.5 28.5104 36.7098 27.0704 35.3033C25.6304 33.8968 24.8214 31.9891 24.8214 30C24.8214 28.0109 25.6304 26.1032 27.0704 24.6967C28.5104 23.2902 30.4635 22.5 32.5 22.5C34.5365 22.5 36.4896 23.2902 37.9296 24.6967C39.3696 26.1032 40.1786 28.0109 40.1786 30C40.1786 30.9849 39.98 31.9602 39.5941 32.8701C39.2082 33.7801 38.6426 34.6069 37.9296 35.3033C37.2165 35.9997 36.3701 36.5522 35.4385 36.9291C34.5069 37.306 33.5084 37.5 32.5 37.5ZM32.5 9C26.7978 9 21.3292 11.2125 17.2972 15.1508C13.2652 19.089 11 24.4305 11 30C11 45.75 32.5 69 32.5 69C32.5 69 54 45.75 54 30C54 24.4305 51.7348 19.089 47.7028 15.1508C43.6708 11.2125 38.2022 9 32.5 9Z" fill="#00BDBC"/>
<circle cx="31.5" cy="30.5" r="10.5" fill="#00BDBC"/>
<g filter="url(#filter0_d_613_1109)">
<path d="M25.9998 41.5895L40.4549 29.964L34.9413 27.6735L39.1583 18.1238L24.7031 29.7492L30.2168 32.0397L25.9998 41.5895ZM25.7531 45.1035C23.5739 44.1982 21.7032 42.9461 20.141 41.3472C18.5783 39.7493 17.3917 37.9683 16.5812 36.0041C15.7706 34.04 15.3625 31.9567 15.3569 29.7543C15.3502 27.5515 15.8136 25.3933 16.7469 23.2796C17.6803 21.1659 18.9712 19.3515 20.6197 17.8362C22.2671 16.3206 24.1034 15.1697 26.1284 14.3835C28.1535 13.5973 30.3016 13.201 32.5727 13.1945C34.8433 13.1891 37.0682 13.639 39.2475 14.5443C41.4267 15.4496 43.2976 16.7012 44.8602 18.2991C46.4224 19.898 47.6088 21.6795 48.4194 23.6437C49.2299 25.6078 49.638 27.6911 49.6436 29.8935C49.6503 32.0963 49.1869 34.2545 48.2536 36.3682C47.3202 38.4819 46.0293 40.2963 44.3808 41.8115C42.7334 43.3272 40.8971 44.4781 38.8721 45.2643C36.847 46.0505 34.6992 46.4463 32.4285 46.4517C30.1574 46.4582 27.9323 46.0088 25.7531 45.1035Z" fill="url(#paint0_linear_613_1109)"/>
<path d="M25.9998 41.5895L40.4549 29.964L34.9413 27.6735L39.1583 18.1238L24.7031 29.7492L30.2168 32.0397L25.9998 41.5895ZM25.7531 45.1035C23.5739 44.1982 21.7032 42.9461 20.141 41.3472C18.5783 39.7493 17.3917 37.9683 16.5812 36.0041C15.7706 34.04 15.3625 31.9567 15.3569 29.7543C15.3502 27.5515 15.8136 25.3933 16.7469 23.2796C17.6803 21.1659 18.9712 19.3515 20.6197 17.8362C22.2671 16.3206 24.1034 15.1697 26.1284 14.3835C28.1535 13.5973 30.3016 13.201 32.5727 13.1945C34.8433 13.1891 37.0682 13.639 39.2475 14.5443C41.4267 15.4496 43.2976 16.7012 44.8602 18.2991C46.4224 19.898 47.6088 21.6795 48.4194 23.6437C49.2299 25.6078 49.638 27.6911 49.6436 29.8935C49.6503 32.0963 49.1869 34.2545 48.2536 36.3682C47.3202 38.4819 46.0293 40.2963 44.3808 41.8115C42.7334 43.3272 40.8971 44.4781 38.8721 45.2643C36.847 46.0505 34.6992 46.4463 32.4285 46.4517C30.1574 46.4582 27.9323 46.0088 25.7531 45.1035Z" fill="white"/>
</g>
<defs>
<filter id="filter0_d_613_1109" x="0.752508" y="0.537721" width="63.4969" height="62.4657" filterUnits="userSpaceOnUse" color-interpolation-filters="sRGB">
<feFlood flood-opacity="0" result="BackgroundImageFix"/>
<feColorMatrix in="SourceAlpha" type="matrix" values="0 0 0 0 0 0 0 0 0 0 0 0 0 0 0 0 0 0 127 0" result="hardAlpha"/>
<feOffset dy="1.94732"/>
<feGaussianBlur stdDeviation="7.30246"/>
<feComposite in2="hardAlpha" operator="out"/>
<feColorMatrix type="matrix" values="0 0 0 0 0.321569 0 0 0 0 0.992157 0 0 0 0 0.819608 0 0 0 0.6 0"/>
<feBlend mode="normal" in2="BackgroundImageFix" result="effect1_dropShadow_613_1109"/>
<feBlend mode="normal" in="SourceGraphic" in2="effect1_dropShadow_613_1109" result="shape"/>
</filter>
<linearGradient id="paint0_linear_613_1109" x1="39.2475" y1="14.5443" x2="26.4348" y2="45.3867" gradientUnits="userSpaceOnUse">
<stop stop-color="#50FFAE"/>
<stop offset="1" stop-color="#52FDD1"/>
</linearGradient>
</defs>
</svg>
