<svg width="86" height="87" viewBox="0 0 86 87" fill="none" xmlns="http://www.w3.org/2000/svg">
<g filter="url(#filter0_i_168_438)">
<path d="M85.6781 49.8249C85.6781 57.3633 80.11 63.6167 72.8286 64.6446V77.6655C72.8286 79.9374 71.9261 82.1163 70.3196 83.7228C68.7131 85.3293 66.5342 86.2318 64.2623 86.2318H47.9862V84.9469C47.9862 81.8798 46.7678 78.9383 44.599 76.7695C42.4302 74.6007 39.4887 73.3823 36.4216 73.3823C29.9969 73.3823 24.8571 78.565 24.8571 84.9469V86.2318H8.581C6.30906 86.2318 4.13018 85.3293 2.52367 83.7228C0.917172 82.1163 0.0146484 79.9374 0.0146484 77.6655V61.3894H1.2996C7.68153 61.3894 12.8642 56.2496 12.8642 49.8249C12.8642 43.4001 7.68153 38.2603 1.2996 38.2603H0.0146484V21.9842C0.0146484 19.7123 0.917172 17.5334 2.52367 15.9269C4.13018 14.3204 6.30906 13.4179 8.581 13.4179H21.6018C22.6298 6.13649 28.8832 0.568359 36.4216 0.568359C43.96 0.568359 50.2135 6.13649 51.2414 13.4179H64.2623C66.5342 13.4179 68.7131 14.3204 70.3196 15.9269C71.9261 17.5334 72.8286 19.7123 72.8286 21.9842V35.0051C80.11 36.033 85.6781 42.2865 85.6781 49.8249ZM64.2623 56.2496H70.687C72.391 56.2496 74.0251 55.5727 75.23 54.3679C76.4349 53.163 77.1118 51.5288 77.1118 49.8249C77.1118 48.1209 76.4349 46.4867 75.23 45.2819C74.0251 44.077 72.391 43.4001 70.687 43.4001H64.2623V21.9842H42.8464V15.5595C42.8464 13.8555 42.1695 12.2214 40.9646 11.0165C39.7598 9.8116 38.1256 9.13471 36.4216 9.13471C34.7177 9.13471 33.0835 9.8116 31.8786 11.0165C30.6738 12.2214 29.9969 13.8555 29.9969 15.5595V21.9842H8.581V31.0646C16.1194 33.9771 21.4305 41.2585 21.4305 49.8249C21.4305 58.3912 16.0766 65.6726 8.581 68.5852V77.6655H17.6613C20.5739 70.1699 27.8553 64.816 36.4216 64.816C44.988 64.816 52.2694 70.1699 55.1819 77.6655H64.2623V56.2496Z" fill="#C9C9C9" fill-opacity="0.2"/>
<path d="M85.6781 49.8249C85.6781 57.3633 80.11 63.6167 72.8286 64.6446V77.6655C72.8286 79.9374 71.9261 82.1163 70.3196 83.7228C68.7131 85.3293 66.5342 86.2318 64.2623 86.2318H47.9862V84.9469C47.9862 81.8798 46.7678 78.9383 44.599 76.7695C42.4302 74.6007 39.4887 73.3823 36.4216 73.3823C29.9969 73.3823 24.8571 78.565 24.8571 84.9469V86.2318H8.581C6.30906 86.2318 4.13018 85.3293 2.52367 83.7228C0.917172 82.1163 0.0146484 79.9374 0.0146484 77.6655V61.3894H1.2996C7.68153 61.3894 12.8642 56.2496 12.8642 49.8249C12.8642 43.4001 7.68153 38.2603 1.2996 38.2603H0.0146484V21.9842C0.0146484 19.7123 0.917172 17.5334 2.52367 15.9269C4.13018 14.3204 6.30906 13.4179 8.581 13.4179H21.6018C22.6298 6.13649 28.8832 0.568359 36.4216 0.568359C43.96 0.568359 50.2135 6.13649 51.2414 13.4179H64.2623C66.5342 13.4179 68.7131 14.3204 70.3196 15.9269C71.9261 17.5334 72.8286 19.7123 72.8286 21.9842V35.0051C80.11 36.033 85.6781 42.2865 85.6781 49.8249ZM64.2623 56.2496H70.687C72.391 56.2496 74.0251 55.5727 75.23 54.3679C76.4349 53.163 77.1118 51.5288 77.1118 49.8249C77.1118 48.1209 76.4349 46.4867 75.23 45.2819C74.0251 44.077 72.391 43.4001 70.687 43.4001H64.2623V21.9842H42.8464V15.5595C42.8464 13.8555 42.1695 12.2214 40.9646 11.0165C39.7598 9.8116 38.1256 9.13471 36.4216 9.13471C34.7177 9.13471 33.0835 9.8116 31.8786 11.0165C30.6738 12.2214 29.9969 13.8555 29.9969 15.5595V21.9842H8.581V31.0646C16.1194 33.9771 21.4305 41.2585 21.4305 49.8249C21.4305 58.3912 16.0766 65.6726 8.581 68.5852V77.6655H17.6613C20.5739 70.1699 27.8553 64.816 36.4216 64.816C44.988 64.816 52.2694 70.1699 55.1819 77.6655H64.2623V56.2496Z" fill="#FFC709"/>
</g>
<defs>
<filter id="filter0_i_168_438" x="0.0146484" y="0.568359" width="85.6636" height="87.5331" filterUnits="userSpaceOnUse" color-interpolation-filters="sRGB">
<feFlood flood-opacity="0" result="BackgroundImageFix"/>
<feBlend mode="normal" in="SourceGraphic" in2="BackgroundImageFix" result="shape"/>
<feColorMatrix in="SourceAlpha" type="matrix" values="0 0 0 0 0 0 0 0 0 0 0 0 0 0 0 0 0 0 127 0" result="hardAlpha"/>
<feOffset dy="1.86902"/>
<feGaussianBlur stdDeviation="2.33628"/>
<feComposite in2="hardAlpha" operator="arithmetic" k2="-1" k3="1"/>
<feColorMatrix type="matrix" values="0 0 0 0 0 0 0 0 0 0 0 0 0 0 0 0 0 0 0.25 0"/>
<feBlend mode="normal" in2="shape" result="effect1_innerShadow_168_438"/>
</filter>
</defs>
</svg>
