<svg width="114" height="84" viewBox="0 0 114 84" fill="#FFC709" xmlns="http://www.w3.org/2000/svg">
<g filter="url(#filter0_i_702_953)">
<path d="M28.5834 83.3327C20.7301 83.3327 14.0306 80.6288 8.48508 75.221C2.93952 69.7788 0.166748 63.1482 0.166748 55.3294C0.166748 48.6127 2.18175 42.6194 6.21175 37.3494C10.2762 32.0794 15.5806 28.721 22.1251 27.2743C24.2951 19.3521 28.6006 12.9455 35.0417 8.05435C41.5173 3.12879 48.8367 0.666016 57.0001 0.666016C67.0923 0.666016 75.6345 4.17935 82.6267 11.206C89.6534 18.1982 93.1667 26.7405 93.1667 36.8327C99.1256 37.5216 104.051 40.1049 107.943 44.5827C111.87 48.9916 113.833 54.1582 113.833 60.0827C113.833 66.5582 111.577 72.0521 107.065 76.5644C102.553 81.0766 97.059 83.3327 90.5834 83.3327M28.5834 72.9994H90.5834C94.2001 72.9994 97.2484 71.7421 99.7284 69.2277C102.243 66.7477 103.5 63.6994 103.5 60.0827C103.5 56.466 102.243 53.4177 99.7284 50.9377C97.2484 48.4232 94.2001 47.166 90.5834 47.166H82.8334V36.8327C82.8334 29.7027 80.319 23.606 75.2901 18.5427C70.2612 13.5138 64.1645 10.9993 57.0001 10.9993C49.8701 10.9993 43.7734 13.5138 38.7101 18.5427C33.6812 23.606 31.1667 29.7027 31.1667 36.8327H28.5834C23.589 36.8327 19.3351 38.6066 15.8217 42.1544C12.274 45.6677 10.5001 49.9216 10.5001 54.916C10.5001 59.9105 12.274 64.216 15.8217 67.8327C19.3351 71.2771 23.589 72.9994 28.5834 72.9994Z" fill="#FFC709"/>
</g>
<defs>
<filter id="filter0_i_702_953" x="0.166748" y="0.666016" width="113.667" height="84.666" filterUnits="userSpaceOnUse" color-interpolation-filters="sRGB">
<feFlood flood-opacity="0" result="BackgroundImageFix"/>
<feBlend mode="normal" in="SourceGraphic" in2="BackgroundImageFix" result="shape"/>
<feColorMatrix in="SourceAlpha" type="matrix" values="0 0 0 0 0 0 0 0 0 0 0 0 0 0 0 0 0 0 127 0" result="hardAlpha"/>
<feOffset dy="2"/>
<feGaussianBlur stdDeviation="1"/>
<feComposite in2="hardAlpha" operator="arithmetic" k2="-1" k3="1"/>
<feColorMatrix type="matrix" values="0 0 0 0 0 0 0 0 0 0 0 0 0 0 0 0 0 0 0.25 0"/>
<feBlend mode="normal" in2="shape" result="effect1_innerShadow_702_953"/>
</filter>
</defs>
</svg>
