<svg width="87" height="87" viewBox="0 0 87 87" fill="none" xmlns="http://www.w3.org/2000/svg">
<g filter="url(#filter0_i_168_446)">
<path d="M83.9328 41.6754L45.3842 3.12682C43.7781 1.53382 41.6071 0.640776 39.345 0.642581H9.36274C7.0908 0.642581 4.91192 1.5451 3.30541 3.15161C1.69891 4.75811 0.796389 6.93699 0.796389 9.20893V39.1912C0.795494 40.3215 1.01833 41.4409 1.45204 42.4848C1.88576 43.5286 2.52179 44.4763 3.32346 45.2733L41.872 83.8218C43.4782 85.4148 45.6492 86.3079 47.9113 86.3061C50.1796 86.2965 52.3515 85.3877 53.9506 83.779L83.9328 53.7968C85.5415 52.1977 86.4503 50.0258 86.4599 47.7575C86.4608 46.6271 86.2379 45.5077 85.8042 44.4639C85.3705 43.42 84.7345 42.4723 83.9328 41.6754ZM47.9113 77.7397L9.36274 39.1912V9.20893H39.345L77.8935 47.7575M20.0707 13.4921C21.3414 13.4921 22.5835 13.8689 23.6401 14.5749C24.6966 15.2808 25.5201 16.2842 26.0064 17.4582C26.4927 18.6322 26.6199 19.924 26.372 21.1703C26.1241 22.4166 25.5122 23.5613 24.6137 24.4599C23.7151 25.3584 22.5704 25.9703 21.3241 26.2182C20.0778 26.4661 18.786 26.3388 17.612 25.8526C16.4381 25.3663 15.4346 24.5428 14.7287 23.4863C14.0227 22.4297 13.6459 21.1876 13.6459 19.9169C13.6459 18.2129 14.3228 16.5787 15.5277 15.3739C16.7326 14.169 18.3667 13.4921 20.0707 13.4921Z" fill="#C9C9C9" fill-opacity="0.2"/>
<path d="M83.9328 41.6754L45.3842 3.12682C43.7781 1.53382 41.6071 0.640776 39.345 0.642581H9.36274C7.0908 0.642581 4.91192 1.5451 3.30541 3.15161C1.69891 4.75811 0.796389 6.93699 0.796389 9.20893V39.1912C0.795494 40.3215 1.01833 41.4409 1.45204 42.4848C1.88576 43.5286 2.52179 44.4763 3.32346 45.2733L41.872 83.8218C43.4782 85.4148 45.6492 86.3079 47.9113 86.3061C50.1796 86.2965 52.3515 85.3877 53.9506 83.779L83.9328 53.7968C85.5415 52.1977 86.4503 50.0258 86.4599 47.7575C86.4608 46.6271 86.2379 45.5077 85.8042 44.4639C85.3705 43.42 84.7345 42.4723 83.9328 41.6754ZM47.9113 77.7397L9.36274 39.1912V9.20893H39.345L77.8935 47.7575M20.0707 13.4921C21.3414 13.4921 22.5835 13.8689 23.6401 14.5749C24.6966 15.2808 25.5201 16.2842 26.0064 17.4582C26.4927 18.6322 26.6199 19.924 26.372 21.1703C26.1241 22.4166 25.5122 23.5613 24.6137 24.4599C23.7151 25.3584 22.5704 25.9703 21.3241 26.2182C20.0778 26.4661 18.786 26.3388 17.612 25.8526C16.4381 25.3663 15.4346 24.5428 14.7287 23.4863C14.0227 22.4297 13.6459 21.1876 13.6459 19.9169C13.6459 18.2129 14.3228 16.5787 15.5277 15.3739C16.7326 14.169 18.3667 13.4921 20.0707 13.4921Z" fill="#FFC709"/>
</g>
<defs>
<filter id="filter0_i_168_446" x="0.796387" y="0.642578" width="85.6636" height="87.5331" filterUnits="userSpaceOnUse" color-interpolation-filters="sRGB">
<feFlood flood-opacity="0" result="BackgroundImageFix"/>
<feBlend mode="normal" in="SourceGraphic" in2="BackgroundImageFix" result="shape"/>
<feColorMatrix in="SourceAlpha" type="matrix" values="0 0 0 0 0 0 0 0 0 0 0 0 0 0 0 0 0 0 127 0" result="hardAlpha"/>
<feOffset dy="1.86902"/>
<feGaussianBlur stdDeviation="2.33628"/>
<feComposite in2="hardAlpha" operator="arithmetic" k2="-1" k3="1"/>
<feColorMatrix type="matrix" values="0 0 0 0 0 0 0 0 0 0 0 0 0 0 0 0 0 0 0.25 0"/>
<feBlend mode="normal" in2="shape" result="effect1_innerShadow_168_446"/>
</filter>
</defs>
</svg>
