<svg width="87" height="91" viewBox="0 0 87 91" fill="none" xmlns="http://www.w3.org/2000/svg">
<g filter="url(#filter0_i_168_488)">
<path d="M33.2352 53.9473C28.9092 50.0924 23.3839 48.0794 17.6444 47.9509V60.8004L0.511719 43.6677L17.6444 26.535V39.3845C24.7973 39.3845 31.7789 41.8259 37.4755 46.1948C35.7194 48.5933 34.306 51.2061 33.2352 53.9473ZM69.0425 60.8004V47.9509C66.9009 47.9509 49.7682 48.6362 47.8408 65.9402C54.5225 68.2959 58.0348 75.663 55.679 82.3448C53.3233 89.0265 45.9562 92.5387 39.2744 90.183C32.6355 87.7844 29.0805 80.4602 31.4362 73.7784C32.6355 70.0949 35.6338 67.2252 39.2744 65.9402C40.5166 50.5636 53.6231 38.8705 69.0425 39.3845V26.535L86.1752 43.6677L69.0425 60.8004ZM47.6266 77.9331C47.6266 76.7971 47.1754 75.7077 46.3721 74.9044C45.5689 74.1012 44.4794 73.6499 43.3435 73.6499C42.2075 73.6499 41.1181 74.1012 40.3148 74.9044C39.5116 75.7077 39.0603 76.7971 39.0603 77.9331C39.0603 79.0691 39.5116 80.1585 40.3148 80.9618C41.1181 81.765 42.2075 82.2163 43.3435 82.2163C44.4794 82.2163 45.5689 81.765 46.3721 80.9618C47.1754 80.1585 47.6266 79.0691 47.6266 77.9331ZM39.0603 44.1817C41.5445 41.3548 44.4143 38.9134 47.6266 36.9431V17.9686H60.4762L43.3435 0.835938L26.2108 17.9686H39.0603V44.1817Z" fill="#C9C9C9" fill-opacity="0.2"/>
<path d="M33.2352 53.9473C28.9092 50.0924 23.3839 48.0794 17.6444 47.9509V60.8004L0.511719 43.6677L17.6444 26.535V39.3845C24.7973 39.3845 31.7789 41.8259 37.4755 46.1948C35.7194 48.5933 34.306 51.2061 33.2352 53.9473ZM69.0425 60.8004V47.9509C66.9009 47.9509 49.7682 48.6362 47.8408 65.9402C54.5225 68.2959 58.0348 75.663 55.679 82.3448C53.3233 89.0265 45.9562 92.5387 39.2744 90.183C32.6355 87.7844 29.0805 80.4602 31.4362 73.7784C32.6355 70.0949 35.6338 67.2252 39.2744 65.9402C40.5166 50.5636 53.6231 38.8705 69.0425 39.3845V26.535L86.1752 43.6677L69.0425 60.8004ZM47.6266 77.9331C47.6266 76.7971 47.1754 75.7077 46.3721 74.9044C45.5689 74.1012 44.4794 73.6499 43.3435 73.6499C42.2075 73.6499 41.1181 74.1012 40.3148 74.9044C39.5116 75.7077 39.0603 76.7971 39.0603 77.9331C39.0603 79.0691 39.5116 80.1585 40.3148 80.9618C41.1181 81.765 42.2075 82.2163 43.3435 82.2163C44.4794 82.2163 45.5689 81.765 46.3721 80.9618C47.1754 80.1585 47.6266 79.0691 47.6266 77.9331ZM39.0603 44.1817C41.5445 41.3548 44.4143 38.9134 47.6266 36.9431V17.9686H60.4762L43.3435 0.835938L26.2108 17.9686H39.0603V44.1817Z" fill="#FFC709"/>
</g>
<defs>
<filter id="filter0_i_168_488" x="0.511719" y="0.835938" width="85.6636" height="91.9491" filterUnits="userSpaceOnUse" color-interpolation-filters="sRGB">
<feFlood flood-opacity="0" result="BackgroundImageFix"/>
<feBlend mode="normal" in="SourceGraphic" in2="BackgroundImageFix" result="shape"/>
<feColorMatrix in="SourceAlpha" type="matrix" values="0 0 0 0 0 0 0 0 0 0 0 0 0 0 0 0 0 0 127 0" result="hardAlpha"/>
<feOffset dy="1.86902"/>
<feGaussianBlur stdDeviation="2.33628"/>
<feComposite in2="hardAlpha" operator="arithmetic" k2="-1" k3="1"/>
<feColorMatrix type="matrix" values="0 0 0 0 0 0 0 0 0 0 0 0 0 0 0 0 0 0 0.25 0"/>
<feBlend mode="normal" in2="shape" result="effect1_innerShadow_168_488"/>
</filter>
</defs>
</svg>
