<svg width="95" height="87" viewBox="0 0 95 87" fill="#FFC709" xmlns="http://www.w3.org/2000/svg">
<g filter="url(#filter0_i_168_456)">
<path d="M8.65571 0.783203C6.38377 0.783203 4.20488 1.68573 2.59838 3.29223C0.991879 4.89873 0.0893555 7.07762 0.0893555 9.34955V60.7476C0.0893555 65.502 3.94421 69.314 8.65571 69.314H38.6379V77.8803H30.0716V86.4467H64.337V77.8803H55.7706V69.314H85.7529C88.0248 69.314 90.2037 68.4115 91.8102 66.805C93.4167 65.1985 94.3192 63.0196 94.3192 60.7476V9.34955C94.3192 7.07762 93.4167 4.89873 91.8102 3.29223C90.2037 1.68573 88.0248 0.783203 85.7529 0.783203M8.65571 9.34955H85.7529V60.7476H8.65571M60.0538 13.6327L45.0627 28.6238L60.0538 43.6149L66.0502 37.6185L57.0556 28.6238L66.0502 19.6292M34.3548 26.4823L28.3583 32.4787L37.353 41.4734L28.3583 50.468L34.3548 56.4645L49.3459 41.4734" fill="#C9C9C9" fill-opacity="0.2"/>
<path d="M8.65571 0.783203C6.38377 0.783203 4.20488 1.68573 2.59838 3.29223C0.991879 4.89873 0.0893555 7.07762 0.0893555 9.34955V60.7476C0.0893555 65.502 3.94421 69.314 8.65571 69.314H38.6379V77.8803H30.0716V86.4467H64.337V77.8803H55.7706V69.314H85.7529C88.0248 69.314 90.2037 68.4115 91.8102 66.805C93.4167 65.1985 94.3192 63.0196 94.3192 60.7476V9.34955C94.3192 7.07762 93.4167 4.89873 91.8102 3.29223C90.2037 1.68573 88.0248 0.783203 85.7529 0.783203M8.65571 9.34955H85.7529V60.7476H8.65571M60.0538 13.6327L45.0627 28.6238L60.0538 43.6149L66.0502 37.6185L57.0556 28.6238L66.0502 19.6292M34.3548 26.4823L28.3583 32.4787L37.353 41.4734L28.3583 50.468L34.3548 56.4645L49.3459 41.4734" fill="#FFC709"/>
</g>
<defs>
<filter id="filter0_i_168_456" x="0.0893555" y="0.783203" width="94.2297" height="87.5331" filterUnits="userSpaceOnUse" color-interpolation-filters="sRGB">
<feFlood flood-opacity="0" result="BackgroundImageFix"/>
<feBlend mode="normal" in="SourceGraphic" in2="BackgroundImageFix" result="shape"/>
<feColorMatrix in="SourceAlpha" type="matrix" values="0 0 0 0 0 0 0 0 0 0 0 0 0 0 0 0 0 0 127 0" result="hardAlpha"/>
<feOffset dy="1.86902"/>
<feGaussianBlur stdDeviation="2.33628"/>
<feComposite in2="hardAlpha" operator="arithmetic" k2="-1" k3="1"/>
<feColorMatrix type="matrix" values="0 0 0 0 0 0 0 0 0 0 0 0 0 0 0 0 0 0 0.25 0"/>
<feBlend mode="normal" in2="shape" result="effect1_innerShadow_168_456"/>
</filter>
</defs>
</svg>
