<svg width="112" height="89" viewBox="0 0 112 89" fill="none" xmlns="http://www.w3.org/2000/svg">
<g filter="url(#filter0_i_168_432)">
<path d="M101.75 26.3333C94.1249 26.3333 90.0583 33.5667 92.0916 39.25L73.7916 57.85C72.2666 57.3333 70.2333 57.3333 68.7083 57.85L55.4916 44.4167C57.5249 38.7333 53.4583 31.5 45.8333 31.5C38.7166 31.5 34.1416 38.7333 36.1749 44.4167L12.7916 67.6667C7.19992 66.1167 0.083252 70.25 0.083252 78C0.083252 83.6833 4.65825 88.3333 10.2499 88.3333C17.3666 88.3333 21.9416 81.1 19.9083 75.4167L42.7833 51.65C44.3083 52.1667 46.3416 52.1667 47.8666 51.65L61.0833 65.0833C59.5583 70.25 63.6249 78 71.2499 78C78.8749 78 82.9416 70.7667 80.9082 65.0833L99.2083 46.4833C104.8 48.0333 111.917 43.9 111.917 36.6667C111.917 30.9833 107.342 26.3333 101.75 26.3333ZM71.2499 31.5L75.8249 20.65L86.4999 16L75.8249 11.35L71.2499 0.5L66.6749 11.35L55.9999 16L66.6749 20.65L71.2499 31.5ZM12.7916 41.8333L15.3333 31.5L25.4999 28.9167L15.3333 26.3333L12.7916 16L10.2499 26.3333L0.083252 28.9167L10.2499 31.5L12.7916 41.8333Z" fill="#C9C9C9" fill-opacity="0.2"/>
<path d="M101.75 26.3333C94.1249 26.3333 90.0583 33.5667 92.0916 39.25L73.7916 57.85C72.2666 57.3333 70.2333 57.3333 68.7083 57.85L55.4916 44.4167C57.5249 38.7333 53.4583 31.5 45.8333 31.5C38.7166 31.5 34.1416 38.7333 36.1749 44.4167L12.7916 67.6667C7.19992 66.1167 0.083252 70.25 0.083252 78C0.083252 83.6833 4.65825 88.3333 10.2499 88.3333C17.3666 88.3333 21.9416 81.1 19.9083 75.4167L42.7833 51.65C44.3083 52.1667 46.3416 52.1667 47.8666 51.65L61.0833 65.0833C59.5583 70.25 63.6249 78 71.2499 78C78.8749 78 82.9416 70.7667 80.9082 65.0833L99.2083 46.4833C104.8 48.0333 111.917 43.9 111.917 36.6667C111.917 30.9833 107.342 26.3333 101.75 26.3333ZM71.2499 31.5L75.8249 20.65L86.4999 16L75.8249 11.35L71.2499 0.5L66.6749 11.35L55.9999 16L66.6749 20.65L71.2499 31.5ZM12.7916 41.8333L15.3333 31.5L25.4999 28.9167L15.3333 26.3333L12.7916 16L10.2499 26.3333L0.083252 28.9167L10.2499 31.5L12.7916 41.8333Z" fill="#FFC709"/>
</g>
<defs>
<filter id="filter0_i_168_432" x="0.083252" y="0.5" width="111.833" height="89.834" filterUnits="userSpaceOnUse" color-interpolation-filters="sRGB">
<feFlood flood-opacity="0" result="BackgroundImageFix"/>
<feBlend mode="normal" in="SourceGraphic" in2="BackgroundImageFix" result="shape"/>
<feColorMatrix in="SourceAlpha" type="matrix" values="0 0 0 0 0 0 0 0 0 0 0 0 0 0 0 0 0 0 127 0" result="hardAlpha"/>
<feOffset dy="2"/>
<feGaussianBlur stdDeviation="2.335"/>
<feComposite in2="hardAlpha" operator="arithmetic" k2="-1" k3="1"/>
<feColorMatrix type="matrix" values="0 0 0 0 0 0 0 0 0 0 0 0 0 0 0 0 0 0 0.25 0"/>
<feBlend mode="normal" in2="shape" result="effect1_innerShadow_168_432"/>
</filter>
</defs>
</svg>
