<svg width="72" height="78" viewBox="0 0 72 78" fill="none" xmlns="http://www.w3.org/2000/svg">
<g filter="url(#filter0_i_168_461)">
<path d="M68.2359 18.651L68.2787 18.6082L52.3453 2.67479L47.8051 7.21496L56.8426 16.2525C52.8164 17.7944 49.9467 21.6493 49.9467 26.2323C49.9467 27.6384 50.2237 29.0309 50.7618 30.33C51.2999 31.6291 52.0887 32.8096 53.083 33.8039C55.0911 35.812 57.8147 36.9402 60.6546 36.9402C62.1966 36.9402 63.61 36.5975 64.9378 36.0407V66.9224C64.9378 68.0584 64.4866 69.1478 63.6833 69.9511C62.88 70.7543 61.7906 71.2056 60.6546 71.2056C59.5187 71.2056 58.4292 70.7543 57.626 69.9511C56.8227 69.1478 56.3715 68.0584 56.3715 66.9224V47.6481C56.3715 45.3762 55.4689 43.1973 53.8624 41.5908C52.2559 39.9843 50.077 39.0818 47.8051 39.0818H43.5219V9.09955C43.5219 6.82762 42.6194 4.64873 41.0129 3.04223C39.4064 1.43573 37.2275 0.533203 34.9556 0.533203H9.25654C6.9846 0.533203 4.80571 1.43573 3.19921 3.04223C1.59271 4.64873 0.690186 6.82762 0.690186 9.09955V77.6303H43.5219V45.5065H49.9467V66.9224C49.9467 69.7623 51.0749 72.4859 53.083 74.4941C55.0911 76.5022 57.8147 77.6303 60.6546 77.6303C62.0608 77.6303 63.4532 77.3534 64.7524 76.8152C66.0515 76.2771 67.232 75.4884 68.2263 74.4941C69.2206 73.4997 70.0094 72.3193 70.5475 71.0202C71.0856 69.721 71.3626 68.3286 71.3626 66.9224V26.2323C71.3626 23.2769 70.1633 20.5785 68.2359 18.651ZM60.6546 30.5154C59.5187 30.5154 58.4292 30.0642 57.626 29.2609C56.8227 28.4577 56.3715 27.3682 56.3715 26.2323C56.3715 25.0963 56.8227 24.0068 57.626 23.2036C58.4292 22.4003 59.5187 21.9491 60.6546 21.9491C61.7906 21.9491 62.88 22.4003 63.6833 23.2036C64.4866 24.0068 64.9378 25.0963 64.9378 26.2323C64.9378 27.3682 64.4866 28.4577 63.6833 29.2609C62.88 30.0642 61.7906 30.5154 60.6546 30.5154ZM17.8229 64.7808V45.5065H9.25654L26.3892 13.3827V34.7986H34.9556L17.8229 64.7808Z" fill="#C9C9C9" fill-opacity="0.2"/>
<path d="M68.2359 18.651L68.2787 18.6082L52.3453 2.67479L47.8051 7.21496L56.8426 16.2525C52.8164 17.7944 49.9467 21.6493 49.9467 26.2323C49.9467 27.6384 50.2237 29.0309 50.7618 30.33C51.2999 31.6291 52.0887 32.8096 53.083 33.8039C55.0911 35.812 57.8147 36.9402 60.6546 36.9402C62.1966 36.9402 63.61 36.5975 64.9378 36.0407V66.9224C64.9378 68.0584 64.4866 69.1478 63.6833 69.9511C62.88 70.7543 61.7906 71.2056 60.6546 71.2056C59.5187 71.2056 58.4292 70.7543 57.626 69.9511C56.8227 69.1478 56.3715 68.0584 56.3715 66.9224V47.6481C56.3715 45.3762 55.4689 43.1973 53.8624 41.5908C52.2559 39.9843 50.077 39.0818 47.8051 39.0818H43.5219V9.09955C43.5219 6.82762 42.6194 4.64873 41.0129 3.04223C39.4064 1.43573 37.2275 0.533203 34.9556 0.533203H9.25654C6.9846 0.533203 4.80571 1.43573 3.19921 3.04223C1.59271 4.64873 0.690186 6.82762 0.690186 9.09955V77.6303H43.5219V45.5065H49.9467V66.9224C49.9467 69.7623 51.0749 72.4859 53.083 74.4941C55.0911 76.5022 57.8147 77.6303 60.6546 77.6303C62.0608 77.6303 63.4532 77.3534 64.7524 76.8152C66.0515 76.2771 67.232 75.4884 68.2263 74.4941C69.2206 73.4997 70.0094 72.3193 70.5475 71.0202C71.0856 69.721 71.3626 68.3286 71.3626 66.9224V26.2323C71.3626 23.2769 70.1633 20.5785 68.2359 18.651ZM60.6546 30.5154C59.5187 30.5154 58.4292 30.0642 57.626 29.2609C56.8227 28.4577 56.3715 27.3682 56.3715 26.2323C56.3715 25.0963 56.8227 24.0068 57.626 23.2036C58.4292 22.4003 59.5187 21.9491 60.6546 21.9491C61.7906 21.9491 62.88 22.4003 63.6833 23.2036C64.4866 24.0068 64.9378 25.0963 64.9378 26.2323C64.9378 27.3682 64.4866 28.4577 63.6833 29.2609C62.88 30.0642 61.7906 30.5154 60.6546 30.5154ZM17.8229 64.7808V45.5065H9.25654L26.3892 13.3827V34.7986H34.9556L17.8229 64.7808Z" fill="#FFC709"/>
</g>
<defs>
<filter id="filter0_i_168_461" x="0.690186" y="0.533203" width="70.6724" height="78.9667" filterUnits="userSpaceOnUse" color-interpolation-filters="sRGB">
<feFlood flood-opacity="0" result="BackgroundImageFix"/>
<feBlend mode="normal" in="SourceGraphic" in2="BackgroundImageFix" result="shape"/>
<feColorMatrix in="SourceAlpha" type="matrix" values="0 0 0 0 0 0 0 0 0 0 0 0 0 0 0 0 0 0 127 0" result="hardAlpha"/>
<feOffset dy="1.86902"/>
<feGaussianBlur stdDeviation="1"/>
<feComposite in2="hardAlpha" operator="arithmetic" k2="-1" k3="1"/>
<feColorMatrix type="matrix" values="0 0 0 0 0 0 0 0 0 0 0 0 0 0 0 0 0 0 0.25 0"/>
<feBlend mode="normal" in2="shape" result="effect1_innerShadow_168_461"/>
</filter>
</defs>
</svg>
