<svg width="95" height="69" viewBox="0 0 95 69" fill="none" xmlns="http://www.w3.org/2000/svg">
<g filter="url(#filter0_i_168_472)">
<path d="M60.2284 0.404297C64.7722 0.404297 69.13 2.20934 72.343 5.42235C75.556 8.63535 77.3611 12.9931 77.3611 17.537C77.3611 22.0809 75.556 26.4386 72.343 29.6516C69.13 32.8647 64.7722 34.6697 60.2284 34.6697C55.6845 34.6697 51.3267 32.8647 48.1137 29.6516C44.9007 26.4386 43.0957 22.0809 43.0957 17.537C43.0957 12.9931 44.9007 8.63535 48.1137 5.42235C51.3267 2.20934 55.6845 0.404297 60.2284 0.404297ZM60.2284 8.54233C57.8428 8.54233 55.555 9.48998 53.8682 11.1768C52.1813 12.8636 51.2337 15.1515 51.2337 17.537C51.2337 19.9225 52.1813 22.2104 53.8682 23.8972C55.555 25.584 57.8428 26.5317 60.2284 26.5317C65.1968 26.5317 69.223 22.5055 69.223 17.537C69.223 12.5685 65.1968 8.54233 60.2284 8.54233ZM60.2284 38.9529C71.6644 38.9529 94.4938 44.6495 94.4938 56.0856V68.9351H25.963V56.0856C25.963 44.6495 48.7923 38.9529 60.2284 38.9529ZM60.2284 47.0909C47.3788 47.0909 34.101 53.3443 34.101 56.0856V60.7971H86.3557V56.0856C86.3557 53.3443 72.9494 47.0909 60.2284 47.0909ZM17.3966 40.1522L6.68868 46.5341L9.60124 34.4984L0.263916 26.446L12.5566 25.3752L17.3966 14.0676L22.1509 25.3752L34.5293 26.446L25.1063 34.4984L27.8904 46.5341L17.3966 40.1522Z" fill="#C9C9C9" fill-opacity="0.2"/>
<path d="M60.2284 0.404297C64.7722 0.404297 69.13 2.20934 72.343 5.42235C75.556 8.63535 77.3611 12.9931 77.3611 17.537C77.3611 22.0809 75.556 26.4386 72.343 29.6516C69.13 32.8647 64.7722 34.6697 60.2284 34.6697C55.6845 34.6697 51.3267 32.8647 48.1137 29.6516C44.9007 26.4386 43.0957 22.0809 43.0957 17.537C43.0957 12.9931 44.9007 8.63535 48.1137 5.42235C51.3267 2.20934 55.6845 0.404297 60.2284 0.404297ZM60.2284 8.54233C57.8428 8.54233 55.555 9.48998 53.8682 11.1768C52.1813 12.8636 51.2337 15.1515 51.2337 17.537C51.2337 19.9225 52.1813 22.2104 53.8682 23.8972C55.555 25.584 57.8428 26.5317 60.2284 26.5317C65.1968 26.5317 69.223 22.5055 69.223 17.537C69.223 12.5685 65.1968 8.54233 60.2284 8.54233ZM60.2284 38.9529C71.6644 38.9529 94.4938 44.6495 94.4938 56.0856V68.9351H25.963V56.0856C25.963 44.6495 48.7923 38.9529 60.2284 38.9529ZM60.2284 47.0909C47.3788 47.0909 34.101 53.3443 34.101 56.0856V60.7971H86.3557V56.0856C86.3557 53.3443 72.9494 47.0909 60.2284 47.0909ZM17.3966 40.1522L6.68868 46.5341L9.60124 34.4984L0.263916 26.446L12.5566 25.3752L17.3966 14.0676L22.1509 25.3752L34.5293 26.446L25.1063 34.4984L27.8904 46.5341L17.3966 40.1522Z" fill="#FFC709"/>
</g>
<defs>
<filter id="filter0_i_168_472" x="0.263916" y="0.404297" width="94.2297" height="70.4003" filterUnits="userSpaceOnUse" color-interpolation-filters="sRGB">
<feFlood flood-opacity="0" result="BackgroundImageFix"/>
<feBlend mode="normal" in="SourceGraphic" in2="BackgroundImageFix" result="shape"/>
<feColorMatrix in="SourceAlpha" type="matrix" values="0 0 0 0 0 0 0 0 0 0 0 0 0 0 0 0 0 0 127 0" result="hardAlpha"/>
<feOffset dy="1.86902"/>
<feGaussianBlur stdDeviation="2.33628"/>
<feComposite in2="hardAlpha" operator="arithmetic" k2="-1" k3="1"/>
<feColorMatrix type="matrix" values="0 0 0 0 0 0 0 0 0 0 0 0 0 0 0 0 0 0 0.25 0"/>
<feBlend mode="normal" in2="shape" result="effect1_innerShadow_168_472"/>
</filter>
</defs>
</svg>
