<svg width="282" height="84" viewBox="0 0 282 84" fill="none" xmlns="http://www.w3.org/2000/svg">
<g clip-path="url(#clip0_186_721)">
<path d="M271.507 1.83665C273.83 1.83665 276.059 2.75965 277.702 4.40257C279.345 6.04551 280.268 8.2738 280.268 10.5972V73.1729C280.268 75.4965 279.345 77.7247 277.702 79.3677C276.059 81.0105 273.83 81.9335 271.507 81.9335H10.775C8.45154 81.9335 6.22324 81.0105 4.5803 79.3677C2.93738 77.7247 2.01439 75.4965 2.01439 73.1729V10.5972C2.01439 8.2738 2.93738 6.04551 4.5803 4.40257C6.22324 2.75965 8.45154 1.83665 10.775 1.83665H271.507ZM271.507 0.167969H10.775C8.00897 0.167969 5.35624 1.26677 3.40037 3.22264C1.4445 5.17851 0.345703 7.83124 0.345703 10.5972V73.1729C0.345703 75.9389 1.4445 78.5917 3.40037 80.5476C5.35624 82.5034 8.00897 83.6022 10.775 83.6022H271.507C274.273 83.6022 276.926 82.5034 278.882 80.5476C280.837 78.5917 281.936 75.9389 281.936 73.1729V10.5972C281.936 7.83124 280.837 5.17851 278.882 3.22264C276.926 1.26677 274.273 0.167969 271.507 0.167969V0.167969Z" fill="white"/>
<path d="M142.477 45.5354C140.725 45.5437 139.016 46.0706 137.563 47.0496C136.111 48.0287 134.981 49.4162 134.316 51.0366C133.652 52.6572 133.483 54.4384 133.83 56.1552C134.176 57.8721 135.024 59.4477 136.265 60.6833C137.506 61.9189 139.086 62.7591 140.804 63.0978C142.522 63.4365 144.303 63.2586 145.921 62.5863C147.538 61.9141 148.919 60.778 149.892 59.321C150.864 57.8642 151.383 56.1518 151.383 54.4003C151.4 53.228 151.181 52.0642 150.739 50.9781C150.297 49.8921 149.64 48.9063 148.81 48.0792C147.98 47.252 146.99 46.6005 145.901 46.1636C144.814 45.7266 143.649 45.5129 142.477 45.5354V45.5354ZM142.477 59.7818C141.4 59.8572 140.324 59.6068 139.392 59.063C138.459 58.5194 137.711 57.7076 137.245 56.7332C136.78 55.7589 136.618 54.6671 136.781 53.5996C136.945 52.5323 137.425 51.5387 138.162 50.7481C138.897 49.9575 139.852 49.4064 140.906 49.1664C141.958 48.9265 143.059 49.0089 144.065 49.4028C145.07 49.7967 145.934 50.484 146.543 51.3752C147.153 52.2665 147.48 53.3205 147.483 54.4003C147.517 55.0845 147.412 55.7685 147.178 56.412C146.943 57.0554 146.582 57.6453 146.115 58.1469C145.649 58.6484 145.085 59.0515 144.461 59.3323C143.836 59.6132 143.161 59.7659 142.477 59.7818V59.7818ZM123.057 45.5354C121.305 45.5396 119.593 46.063 118.138 47.0396C116.683 48.0162 115.55 49.4021 114.882 51.0223C114.214 52.6425 114.042 54.4243 114.386 56.1426C114.731 57.8608 115.577 59.4383 116.817 60.676C118.058 61.9137 119.637 62.756 121.357 63.0964C123.076 63.4368 124.857 63.26 126.475 62.5884C128.094 61.9168 129.477 60.7806 130.451 59.3232C131.424 57.8659 131.943 56.1527 131.943 54.4003C131.96 53.228 131.741 52.0642 131.299 50.9781C130.857 49.8921 130.201 48.9063 129.37 48.0792C128.539 47.252 127.55 46.6005 126.462 46.1636C125.374 45.7266 124.209 45.5129 123.037 45.5354H123.057ZM123.057 59.7818C121.98 59.8614 120.903 59.6147 119.967 59.0738C119.032 58.5329 118.281 57.7228 117.812 56.7491C117.343 55.7756 117.179 54.6832 117.339 53.6146C117.5 52.546 117.979 51.5505 118.713 50.7578C119.448 49.965 120.404 49.4117 121.457 49.1699C122.51 48.9281 123.612 49.0089 124.618 49.402C125.625 49.795 126.49 50.4819 127.101 51.3735C127.711 52.2649 128.04 53.3197 128.043 54.4003C128.076 55.0845 127.972 55.7685 127.738 56.412C127.503 57.0554 127.141 57.6453 126.675 58.1469C126.208 58.6484 125.646 59.0515 125.021 59.3323C124.396 59.6132 123.721 59.7659 123.037 59.7818H123.057ZM99.9253 48.2679V52.0225H108.936C108.795 53.7909 108.06 55.4596 106.85 56.7574C105.949 57.6757 104.865 58.395 103.669 58.8692C102.472 59.3434 101.19 59.5619 99.9044 59.5107C97.249 59.5107 94.7024 58.4558 92.8248 56.5782C90.9472 54.7006 89.8923 52.154 89.8923 49.4986C89.8923 46.8431 90.9472 44.2966 92.8248 42.4189C94.7024 40.5413 97.249 39.4865 99.9044 39.4865C102.445 39.445 104.897 40.4127 106.725 42.1772L109.374 39.5282C108.14 38.2788 106.668 37.2898 105.045 36.6198C103.422 35.9498 101.681 35.6124 99.9253 35.6276C98.0709 35.5554 96.2212 35.8584 94.4867 36.5182C92.7523 37.1781 91.1688 38.1812 89.8313 39.4677C88.4939 40.7541 87.4298 42.2973 86.703 44.0048C85.9762 45.7124 85.6016 47.549 85.6016 49.4047C85.6016 51.2605 85.9762 53.0971 86.703 54.8046C87.4298 56.512 88.4939 58.0553 89.8313 59.3417C91.1688 60.6282 92.7523 61.6314 94.4867 62.2911C96.2212 62.951 98.0709 63.2539 99.9253 63.1818C101.711 63.2625 103.493 62.9598 105.151 62.2941C106.81 61.6286 108.307 60.6154 109.541 59.323C111.726 56.922 112.893 53.7657 112.795 50.5206C112.802 49.7301 112.732 48.9407 112.586 48.1636L99.9253 48.2679ZM194.435 51.1881C193.892 49.5877 192.874 48.1902 191.518 47.1808C190.162 46.1714 188.532 45.5976 186.843 45.5354C185.702 45.5332 184.573 45.765 183.525 46.2165C182.477 46.6681 181.533 47.3297 180.751 48.1605C179.969 48.9914 179.365 49.9738 178.978 51.0471C178.591 52.1204 178.428 53.2616 178.499 54.4003C178.475 55.5661 178.685 56.7252 179.116 57.808C179.549 58.8908 180.196 59.8755 181.017 60.7029C181.839 61.5303 182.819 62.1837 183.899 62.624C184.979 63.0642 186.136 63.2823 187.302 63.2652C188.761 63.2731 190.199 62.919 191.488 62.2346C192.776 61.5503 193.875 60.557 194.686 59.3438L191.661 57.258C191.21 58.0104 190.571 58.6329 189.806 59.0644C189.042 59.4958 188.179 59.7215 187.302 59.7193C186.398 59.7537 185.505 59.5155 184.739 59.0356C183.972 58.5558 183.369 57.8563 183.005 57.0285L194.873 52.1268L194.435 51.1881ZM182.337 54.15C182.296 53.5049 182.382 52.8577 182.593 52.2466C182.804 51.6354 183.135 51.0725 183.566 50.5907C183.997 50.1089 184.52 49.7181 185.104 49.4411C185.689 49.1639 186.323 49.0062 186.968 48.9771C187.641 48.9328 188.312 49.087 188.897 49.4207C189.484 49.7545 189.959 50.253 190.264 50.8544L182.337 54.15ZM172.701 62.7438H176.601V36.6706H172.701V62.7438ZM166.318 47.517H166.172C165.584 46.8597 164.865 46.3342 164.059 45.9747C163.253 45.6152 162.381 45.43 161.5 45.4312C159.221 45.5417 157.071 46.5251 155.496 48.1773C153.923 49.8297 153.044 52.0243 153.044 54.3065C153.044 56.5887 153.923 58.7832 155.496 60.4356C157.071 62.0879 159.221 63.0712 161.5 63.1818C162.384 63.1967 163.26 63.0175 164.068 62.6572C164.875 62.2969 165.593 61.7639 166.172 61.0959H166.297V62.3683C166.297 65.7683 164.483 67.583 161.562 67.583C160.59 67.5601 159.646 67.2486 158.851 66.6876C158.055 66.1268 157.447 65.342 157.099 64.4333L153.699 65.8517C154.339 67.4085 155.429 68.7386 156.83 69.6714C158.231 70.6042 159.879 71.0972 161.562 71.0872C166.13 71.0872 169.906 68.3964 169.906 61.8468V46.0569H166.318V47.517ZM161.854 59.7818C160.509 59.6632 159.256 59.045 158.345 58.0489C157.432 57.0528 156.927 55.7511 156.927 54.4003C156.927 53.0496 157.432 51.7479 158.345 50.7518C159.256 49.7557 160.509 49.1373 161.854 49.0188C162.522 49.053 163.175 49.2205 163.776 49.5111C164.378 49.8018 164.915 50.21 165.356 50.7115C165.798 51.213 166.134 51.7977 166.345 52.4313C166.558 53.0647 166.64 53.7343 166.589 54.4003C166.647 55.0692 166.567 55.7427 166.356 56.3801C166.145 57.0174 165.807 57.6055 165.363 58.1085C164.918 58.6116 164.376 59.0192 163.769 59.3068C163.163 59.5945 162.505 59.756 161.833 59.7818H161.854ZM212.708 36.6706H203.384V62.7438H207.284V52.8568H212.728C213.84 52.9366 214.956 52.7867 216.007 52.4162C217.059 52.0455 218.023 51.4624 218.837 50.7032C219.653 49.9438 220.304 49.0246 220.75 48.0026C221.194 46.9808 221.424 45.8782 221.424 44.7637C221.424 43.6492 221.194 42.5465 220.75 41.5247C220.304 40.5028 219.653 39.5836 218.837 38.8242C218.023 38.0648 217.059 37.4818 216.007 37.1112C214.956 36.7407 213.84 36.5906 212.728 36.6706H212.708ZM212.708 49.1857H207.263V40.2999H212.791C213.977 40.2999 215.115 40.7714 215.955 41.6104C216.793 42.4494 217.265 43.5875 217.265 44.7741C217.265 45.9607 216.793 47.0988 215.955 47.9378C215.115 48.7769 213.977 49.2483 212.791 49.2483L212.708 49.1857ZM236.757 45.4312C235.338 45.3463 233.923 45.6781 232.69 46.3858C231.455 47.0937 230.456 48.1466 229.812 49.4151L233.274 50.8544C233.616 50.2251 234.132 49.7089 234.762 49.3681C235.391 49.0274 236.107 48.877 236.82 48.9354C237.315 48.8775 237.817 48.9188 238.296 49.057C238.776 49.1952 239.221 49.4273 239.61 49.7399C239.998 50.0525 240.32 50.4393 240.558 50.8777C240.795 51.3163 240.942 51.7976 240.992 52.2936V52.5648C239.739 51.9015 238.341 51.5576 236.924 51.5636C233.191 51.5636 229.415 53.6494 229.415 57.4248C229.452 58.2298 229.65 59.0193 229.997 59.7465C230.345 60.4737 230.834 61.124 231.437 61.6587C232.04 62.1935 232.743 62.6019 233.507 62.8599C234.27 63.118 235.078 63.2204 235.881 63.1609C236.863 63.2315 237.847 63.0363 238.727 62.5958C239.609 62.1554 240.354 61.486 240.887 60.6579H241.013V62.7438H244.767V52.7108C244.767 48.1428 241.305 45.4937 236.862 45.4937L236.757 45.4312ZM236.278 59.7193C235.005 59.7193 233.232 59.0727 233.232 57.5083C233.232 55.4224 235.443 54.7341 237.404 54.7341C238.643 54.7034 239.868 55.006 240.95 55.6101C240.82 56.7394 240.285 57.7835 239.446 58.5501C238.606 59.3167 237.519 59.7541 236.382 59.7818L236.278 59.7193ZM258.45 46.0569L253.987 57.3623H253.861L249.231 46.0569H245.059L252.005 61.8677L248.042 70.6492H252.109L262.789 46.0569H258.45ZM223.387 62.7438H227.288V36.6706H223.387V62.7438Z" fill="white"/>
<path d="M99.1274 21.6565C99.1629 22.4214 99.0424 23.1858 98.7735 23.9029C98.5047 24.6201 98.0927 25.275 97.563 25.8282C96.9714 26.4426 96.257 26.9256 95.4663 27.2454C94.6757 27.5653 93.8265 27.715 92.9741 27.6846C91.6808 27.6744 90.4194 27.2829 89.3476 26.5589C88.2759 25.835 87.4417 24.8108 86.9495 23.6148C86.4573 22.4188 86.329 21.1042 86.5807 19.8356C86.8323 18.567 87.4529 17.4011 88.3644 16.4835C88.9634 15.8719 89.6816 15.3898 90.4745 15.0668C91.2674 14.7439 92.1182 14.5872 92.9741 14.6063C93.8559 14.6033 94.729 14.7808 95.5398 15.1277C96.2944 15.4321 96.9663 15.9111 97.5005 16.5253L96.3949 17.6308C95.9786 17.1355 95.4528 16.744 94.8591 16.4869C94.2654 16.2298 93.6201 16.1145 92.9741 16.1498C92.3226 16.1465 91.6771 16.275 91.0764 16.5273C90.4757 16.7796 89.9321 17.1506 89.4782 17.6181C89.0244 18.0856 88.6697 18.6399 88.4352 19.2478C88.2008 19.8557 88.0916 20.5047 88.1141 21.1559C88.1004 22.1281 88.375 23.0827 88.9032 23.8991C89.4314 24.7155 90.1897 25.3572 91.0821 25.7432C91.9746 26.1292 92.9614 26.2422 93.918 26.068C94.8747 25.8937 95.7584 25.4402 96.4575 24.7644C97.0993 24.0688 97.4696 23.1656 97.5005 22.2196H92.9741V20.7178H99.044C99.0995 21.0276 99.1276 21.3418 99.1274 21.6565V21.6565ZM108.681 16.4418H103.049V20.4049H108.18V21.9068H103.049V25.8699H108.681V27.4134H101.38V14.8983H108.681V16.4418ZM115.522 27.4134H113.916V16.4418H110.412V14.8983H119.11V16.4418H115.522V27.4134ZM125.242 27.4134V14.8983H126.848V27.4134H125.242ZM133.982 27.4134H132.376V16.4418H128.872V14.8983H137.465V16.4418H133.982V27.4134ZM153.756 25.7865C152.537 26.999 150.886 27.6798 149.167 27.6798C147.447 27.6798 145.798 26.999 144.578 25.7865C143.393 24.5318 142.732 22.8713 142.732 21.1454C142.732 19.4195 143.393 17.7589 144.578 16.5044C145.179 15.899 145.895 15.4184 146.682 15.0906C147.469 14.7626 148.314 14.5938 149.167 14.5938C150.021 14.5938 150.864 14.7626 151.653 15.0906C152.44 15.4184 153.155 15.899 153.756 16.5044C154.946 17.7566 155.61 19.4179 155.61 21.1454C155.61 22.8728 154.946 24.5343 153.756 25.7865V25.7865ZM145.767 24.7435C146.67 25.6428 147.893 26.1477 149.167 26.1477C150.442 26.1477 151.663 25.6428 152.567 24.7435C153.459 23.7611 153.951 22.4822 153.951 21.1559C153.951 19.8295 153.459 18.5506 152.567 17.5682C151.663 16.6689 150.442 16.164 149.167 16.164C147.893 16.164 146.67 16.6689 145.767 17.5682C144.877 18.5506 144.382 19.8295 144.382 21.1559C144.382 22.4822 144.877 23.7611 145.767 24.7435ZM157.865 27.4134V14.8983H159.826L165.916 24.6392V14.8983H167.522V27.4134H165.854L159.492 17.2136V27.4134H157.865Z" fill="white"/>
<path fill-rule="evenodd" clip-rule="evenodd" d="M149.165 14.8039C148.339 14.8039 147.522 14.9672 146.759 15.2847C145.998 15.6016 145.307 16.066 144.726 16.651C143.578 17.8667 142.938 19.4752 142.938 21.147C142.938 22.8185 143.578 24.4269 144.726 25.6424C145.905 26.8146 147.501 27.4727 149.165 27.4727C150.828 27.4727 152.425 26.8146 153.605 25.6421C154.756 24.4289 155.399 22.8198 155.399 21.147C155.399 19.4739 154.756 17.8645 153.603 16.6513C153.023 16.0661 152.331 15.6017 151.57 15.2847C150.807 14.9672 149.99 14.8039 149.165 14.8039V14.8039ZM146.599 14.8994C147.412 14.561 148.285 14.3867 149.165 14.3867C150.046 14.3867 150.917 14.561 151.73 14.8994C152.544 15.238 153.281 15.7341 153.902 16.359L153.905 16.3622C155.131 17.6532 155.816 19.366 155.816 21.147C155.816 22.9279 155.131 24.6407 153.905 25.9317L153.901 25.936C152.643 27.1874 150.94 27.8899 149.165 27.8899C147.39 27.8899 145.688 27.1874 144.428 25.9358L144.424 25.9313C143.203 24.6379 142.521 22.9261 142.521 21.147C142.521 19.3677 143.203 17.656 144.424 16.3627L144.428 16.3589C145.048 15.7339 145.787 15.238 146.599 14.8994V14.8994ZM92.9671 14.8163C92.1397 14.7979 91.3173 14.9494 90.5509 15.2616C89.7844 15.5737 89.0902 16.0398 88.5111 16.631L88.51 16.6321C87.6275 17.5205 87.0266 18.6496 86.783 19.8779C86.5393 21.1062 86.6635 22.3791 87.14 23.537C87.6166 24.695 88.4244 25.6867 89.4621 26.3877C90.4997 27.0885 91.7212 27.4678 92.9734 27.4776H92.9793C93.8023 27.5069 94.6223 27.3624 95.3858 27.0536C96.1492 26.7448 96.839 26.2786 97.4101 25.6853C97.9204 25.1526 98.317 24.5218 98.5759 23.8312C98.8349 23.1405 98.9508 22.4045 98.9166 21.6677L99.1251 21.658L98.9165 21.6579C98.9165 21.4136 98.899 21.1697 98.8641 20.928H93.1804V22.0126H97.7136L97.7066 22.228C97.674 23.224 97.2842 24.175 96.6084 24.9074L96.6003 24.9161C95.8716 25.6206 94.9503 26.0932 93.9531 26.2748C92.9559 26.4564 91.9273 26.3385 90.9969 25.9361C90.0666 25.5338 89.2763 24.8649 88.7258 24.014C88.176 23.1644 87.8899 22.1713 87.9031 21.1595C87.8804 20.482 87.9945 19.8068 88.2384 19.1743C88.4828 18.5402 88.8529 17.962 89.3263 17.4743C89.7998 16.9867 90.3667 16.5997 90.9933 16.3365C91.618 16.0742 92.2891 15.9403 92.9666 15.9428C93.6428 15.9068 94.3181 16.028 94.9397 16.2971C95.4935 16.5368 95.9911 16.8882 96.4018 17.3282L97.2103 16.5195C96.7206 15.9992 96.1234 15.5905 95.4593 15.3227L95.4553 15.3211C94.6708 14.9854 93.8258 14.8135 92.9725 14.8164L92.9671 14.8163ZM99.3337 21.6532C99.3697 22.4449 99.2448 23.2357 98.9664 23.9777C98.6877 24.7214 98.2606 25.4004 97.7113 25.974C97.0995 26.6096 96.3602 27.1094 95.5423 27.4403C94.7254 27.7709 93.848 27.9256 92.9673 27.8947C91.6339 27.8836 90.3335 27.4798 89.2285 26.7333C88.1229 25.9864 87.2621 24.9298 86.7543 23.6958C86.2465 22.4619 86.114 21.1055 86.3737 19.7966C86.6334 18.488 87.2734 17.2851 88.2136 16.3386C88.8324 15.7068 89.5745 15.2088 90.3936 14.8752C91.212 14.5419 92.0902 14.3799 92.9738 14.3992C93.8824 14.3965 94.782 14.5794 95.6175 14.9366C96.4019 15.2534 97.1004 15.7514 97.6555 16.3899L97.7831 16.5367L96.3792 17.9406L96.2329 17.7665C95.8374 17.2961 95.338 16.924 94.7739 16.6799C94.2099 16.4357 93.5968 16.326 92.9832 16.3595L92.9708 16.3603C92.3472 16.3572 91.7297 16.4797 91.1548 16.7212C90.58 16.9626 90.0598 17.3176 89.6256 17.7649C89.1913 18.2123 88.8519 18.7426 88.6275 19.3243C88.4033 19.9062 88.2987 20.5271 88.3202 21.1502L88.3205 21.1603C88.3075 22.0914 88.5701 23.0055 89.076 23.7873C89.5818 24.5691 90.3079 25.1836 91.1626 25.5532C92.0173 25.9229 92.9622 26.0311 93.8784 25.8644C94.7925 25.6979 95.637 25.265 96.3059 24.6201C96.8625 24.015 97.2025 23.2447 97.2764 22.4298H92.7632V20.5108H99.2161L99.2469 20.6825C99.3045 21.0029 99.3334 21.3277 99.3337 21.6532V21.6532ZM101.169 14.6913H108.887V16.652H103.255V20.1979H108.386V22.1169H103.255V25.6629H108.887V27.6236H101.169V14.6913ZM101.586 15.1084V27.2064H108.47V26.08H102.838V21.6997H107.969V20.6151H102.838V16.2348H108.47V15.1084H101.586ZM110.201 14.6913H119.316V16.652H115.729V27.6236H113.705V16.652H110.201V14.6913ZM110.618 15.1084V16.2348H114.122V27.2064H115.311V16.2348H118.899V15.1084H110.618ZM125.031 14.6913H127.055V27.6236H125.031V14.6913ZM125.449 15.1084V27.2064H126.638V15.1084H125.449ZM128.661 14.6913H137.671V16.652H134.188V27.6236H132.165V16.652H128.661V14.6913ZM129.078 15.1084V16.2348H132.582V27.2064H133.771V16.2348H137.254V15.1084H129.078ZM157.654 14.6913H159.939L165.705 23.9137V14.6913H167.729V27.6236H165.735L159.698 17.9436V27.6236H157.654V14.6913ZM158.071 15.1084V27.2064H159.281V16.4865L165.967 27.2064H167.311V15.1084H166.123V25.3678L159.707 15.1084H158.071ZM145.617 17.4219C146.56 16.4838 147.835 15.957 149.165 15.957C150.494 15.957 151.769 16.4838 152.712 17.4219L152.72 17.4293C153.645 18.4501 154.158 19.7792 154.158 21.1574C154.158 22.5355 153.645 23.8645 152.72 24.8852L152.712 24.893C151.771 25.8313 150.494 26.3578 149.165 26.3578C147.835 26.3578 146.56 25.831 145.617 24.8929L145.765 24.7451L145.611 24.8852C144.684 23.8645 144.172 22.5355 144.172 21.1574C144.172 19.7792 144.684 18.4504 145.611 17.4296L145.617 17.4219ZM145.916 24.601C146.779 25.459 147.947 25.9407 149.165 25.9407C150.382 25.9407 151.55 25.459 152.413 24.601C153.268 23.6574 153.74 22.4302 153.74 21.1574C153.74 19.8845 153.268 18.6572 152.413 17.7138C151.55 16.8557 150.382 16.3741 149.165 16.3741C147.947 16.3741 146.779 16.8557 145.916 17.7138C145.062 18.6572 144.589 19.8845 144.589 21.1574C144.589 22.4302 145.062 23.6574 145.916 24.601Z" fill="white"/>
<path d="M22.2367 68.3715L47.7898 41.8681L22.2582 15.4121C21.5763 15.8241 21.1543 16.7777 21.1543 18.0261V65.7829C21.1634 67.0312 21.5702 67.9152 22.2367 68.3715V68.3715Z" fill="white"/>
<path d="M48.705 41.1368L56.3164 33.2413L25.3202 15.6124C24.7982 15.2979 24.2054 15.1318 23.6016 15.1309L48.702 41.1337L48.705 41.1368Z" fill="white"/>
<path d="M48.7071 42.6055L23.5273 68.7225C24.1592 68.7333 24.7817 68.5623 25.3255 68.2281L56.3828 50.5518L48.7071 42.6055Z" fill="white"/>
<path d="M67.5462 39.6371L57.2315 33.7598L49.4121 41.8707L57.2895 50.0326L67.5432 44.1711C69.7235 42.9258 69.7234 40.8759 67.5462 39.6371Z" fill="white"/>
</g>
<defs>
<clipPath id="clip0_186_721">
<rect width="281.591" height="83.4342" fill="white" transform="translate(0.349609 0.166016)"/>
</clipPath>
</defs>
</svg>
