<svg width="282" height="85" viewBox="0 0 282 85" fill="none" xmlns="http://www.w3.org/2000/svg">
<g clip-path="url(#clip0_186_731)">
<path d="M271.165 2.26243C273.488 2.26243 275.718 3.18543 277.36 4.82835C279.003 6.47129 279.926 8.69958 279.926 11.023V73.5987C279.926 75.9222 279.003 78.1504 277.36 79.7935C275.718 81.4363 273.488 82.3593 271.165 82.3593H10.4332C8.10974 82.3593 5.88145 81.4363 4.23851 79.7935C2.59558 78.1504 1.67259 75.9222 1.67259 73.5987V11.023C1.67259 8.69958 2.59558 6.47129 4.23851 4.82835C5.88145 3.18543 8.10974 2.26243 10.4332 2.26243H271.165ZM271.165 0.59375H10.4332C7.66717 0.59375 5.01445 1.69255 3.05858 3.64842C1.1027 5.60429 0.00390625 8.25702 0.00390625 11.023V73.5987C0.00390625 76.3647 1.1027 79.0175 3.05858 80.9734C5.01445 82.9291 7.66717 84.028 10.4332 84.028H271.165C273.932 84.028 276.585 82.9291 278.54 80.9734C280.496 79.0175 281.595 76.3647 281.595 73.5987V11.023C281.595 8.25702 280.496 5.60429 278.54 3.64842C276.585 1.69255 273.932 0.59375 271.165 0.59375V0.59375Z" fill="white"/>
<path d="M66.9853 40.8774C66.9277 34.472 72.2301 31.3558 72.4725 31.2107C69.4696 26.8323 64.8151 26.2342 63.1794 26.1865C59.2701 25.775 55.4781 28.5256 53.4868 28.5256C51.4556 28.5256 48.3891 26.2262 45.0839 26.2938C40.8309 26.3593 36.8521 28.8217 34.6699 32.6456C30.1664 40.4421 33.5252 51.8996 37.8399 58.2018C39.9982 61.2882 42.5202 64.7344 45.8213 64.6132C49.0508 64.4799 50.2572 62.5542 54.1545 62.5542C58.0161 62.5542 59.1489 64.6132 62.5156 64.5356C65.9816 64.4799 68.1638 61.4352 70.2467 58.3211C72.7408 54.7834 73.7426 51.2994 73.7823 51.1205C73.7008 51.0928 67.0509 48.5548 66.9853 40.8774V40.8774Z" fill="white"/>
<path d="M60.6284 22.0406C62.3654 19.8684 63.5538 16.9131 63.2238 13.9141C60.7098 14.0254 57.5657 15.653 55.7551 17.7776C54.1533 19.6498 52.7223 22.7183 53.092 25.6041C55.9162 25.8148 58.8158 24.1791 60.6284 22.0406V22.0406Z" fill="white"/>
<path d="M113.725 64.1692H109.212L106.739 56.4005H98.1458L95.7906 64.1692H91.3965L99.9106 37.7207H105.169L113.725 64.1692ZM105.994 53.1411L103.758 46.2348C103.522 45.5292 103.079 43.8677 102.425 41.2523H102.345C102.085 42.3772 101.665 44.0386 101.089 46.2348L98.8931 53.1411H105.994Z" fill="white"/>
<path d="M135.62 54.4016C135.62 57.6451 134.743 60.2089 132.991 62.091C131.42 63.7663 129.471 64.603 127.143 64.603C124.631 64.603 122.827 63.7007 121.728 61.8962H121.648V71.9426H117.411V51.3788C117.411 49.3396 117.357 47.2468 117.254 45.1005H120.98L121.217 48.1233H121.296C122.709 45.8458 124.854 44.709 127.732 44.709C129.981 44.709 131.859 45.5973 133.362 47.376C134.868 49.1568 135.62 51.4979 135.62 54.4016V54.4016ZM131.303 54.5566C131.303 52.7003 130.885 51.1701 130.047 49.9656C129.131 48.7097 127.901 48.0816 126.358 48.0816C125.313 48.0816 124.363 48.4313 123.514 49.121C122.664 49.8166 122.107 50.7249 121.847 51.8498C121.716 52.3744 121.65 52.8037 121.65 53.1416V56.3215C121.65 57.7087 122.075 58.8793 122.926 59.8352C123.777 60.7911 124.882 61.2681 126.241 61.2681C127.837 61.2681 129.079 60.652 129.967 59.4238C130.858 58.1935 131.303 56.5719 131.303 54.5566V54.5566Z" fill="white"/>
<path d="M157.556 54.4016C157.556 57.6451 156.679 60.2089 154.924 62.091C153.356 63.7663 151.407 64.603 149.08 64.603C146.568 64.603 144.763 63.7007 143.666 61.8962H143.586V71.9426H139.349V51.3788C139.349 49.3396 139.296 47.2468 139.191 45.1005H142.919L143.155 48.1233H143.234C144.646 45.8458 146.789 44.709 149.669 44.709C151.918 44.709 153.795 45.5973 155.302 47.376C156.803 49.1568 157.556 51.4979 157.556 54.4016V54.4016ZM153.238 54.5566C153.238 52.7003 152.82 51.1701 151.98 49.9656C151.065 48.7097 149.838 48.0816 148.295 48.0816C147.247 48.0816 146.299 48.4313 145.448 49.121C144.598 49.8166 144.044 50.7249 143.783 51.8498C143.654 52.3744 143.586 52.8037 143.586 53.1416V56.3215C143.586 57.7087 144.011 58.8793 144.858 59.8352C145.708 60.7891 146.814 61.2681 148.178 61.2681C149.773 61.2681 151.016 60.652 151.903 59.4238C152.794 58.1935 153.238 56.5719 153.238 54.5566V54.5566Z" fill="white"/>
<path d="M182.082 56.753C182.082 59.0028 181.301 60.8331 179.733 62.2463C178.009 63.7905 175.61 64.5616 172.528 64.5616C169.683 64.5616 167.401 64.013 165.674 62.914L166.655 59.3824C168.516 60.5072 170.557 61.0717 172.78 61.0717C174.377 61.0717 175.618 60.7099 176.511 59.9906C177.399 59.2711 177.842 58.3052 177.842 57.1009C177.842 56.0276 177.477 55.1233 176.743 54.39C176.014 53.6566 174.796 52.9749 173.094 52.345C168.464 50.6179 166.151 48.0879 166.151 44.7609C166.151 42.5867 166.962 40.8039 168.585 39.4167C170.203 38.0275 172.362 37.334 175.06 37.334C177.467 37.334 179.467 37.7532 181.062 38.5901L180.002 42.0441C178.512 41.2332 176.827 40.8278 174.942 40.8278C173.45 40.8278 172.286 41.1956 171.452 41.9269C170.745 42.5807 170.392 43.3778 170.392 44.3217C170.392 45.3671 170.795 46.2316 171.605 46.9113C172.312 47.5393 173.594 48.219 175.454 48.9523C177.729 49.8685 179.401 50.9398 180.476 52.1681C181.547 53.3923 182.082 54.9245 182.082 56.753V56.753Z" fill="white"/>
<path d="M196.089 48.2794H191.419V57.5388C191.419 59.894 192.242 61.0705 193.891 61.0705C194.648 61.0705 195.277 61.0048 195.773 60.8737L195.891 64.0914C195.055 64.4033 193.956 64.5604 192.595 64.5604C190.921 64.5604 189.614 64.0496 188.67 63.03C187.73 62.0085 187.257 60.2954 187.257 57.8885V48.2755H184.475V45.0956H187.257V41.6037L191.419 40.3477V45.0956H196.089V48.2794Z" fill="white"/>
<path d="M217.161 54.479C217.161 57.4105 216.323 59.8172 214.649 61.6993C212.894 63.6371 210.565 64.603 207.661 64.603C204.864 64.603 202.636 63.6749 200.974 61.8186C199.313 59.9623 198.482 57.6191 198.482 54.795C198.482 51.8397 199.336 49.4191 201.052 47.537C202.762 45.653 205.072 44.7109 207.976 44.7109C210.775 44.7109 213.026 45.639 214.725 47.4972C216.35 49.2998 217.161 51.6271 217.161 54.479ZM212.765 54.6161C212.765 52.8574 212.39 51.3489 211.629 50.0909C210.741 48.5685 209.47 47.8093 207.824 47.8093C206.122 47.8093 204.827 48.5704 203.94 50.0909C203.178 51.3509 202.803 52.8832 202.803 54.6957C202.803 56.4546 203.178 57.963 203.94 59.219C204.856 60.7414 206.135 61.5006 207.787 61.5006C209.404 61.5006 210.674 60.7255 211.591 59.1794C212.372 57.8975 212.765 56.3731 212.765 54.6161Z" fill="white"/>
<path d="M230.932 48.8269C230.512 48.7494 230.065 48.7097 229.596 48.7097C228.106 48.7097 226.953 49.2721 226.143 50.3989C225.437 51.3926 225.083 52.6487 225.083 54.1651V64.1717H220.847L220.888 51.1064C220.888 48.9083 220.834 46.9071 220.729 45.1024H224.419L224.574 48.7514H224.692C225.139 47.4973 225.844 46.4877 226.81 45.7305C227.754 45.0488 228.773 44.709 229.872 44.709C230.263 44.709 230.618 44.7368 230.932 44.7864V48.8269Z" fill="white"/>
<path d="M249.884 53.7326C249.884 54.4917 249.835 55.1317 249.729 55.6544H237.017C237.067 57.5385 237.681 58.9793 238.862 59.9731C239.934 60.8614 241.318 61.3066 243.019 61.3066C244.902 61.3066 246.619 61.0065 248.162 60.4043L248.827 63.3456C247.022 64.1327 244.891 64.5243 242.433 64.5243C239.476 64.5243 237.154 63.6537 235.465 61.9147C233.78 60.1758 232.936 57.8405 232.936 54.9111C232.936 52.0353 233.72 49.6404 235.293 47.7305C236.938 45.6915 239.162 44.6719 241.961 44.6719C244.709 44.6719 246.79 45.6915 248.203 47.7305C249.321 49.3503 249.884 51.3537 249.884 53.7326V53.7326ZM245.843 52.6335C245.872 51.3775 245.595 50.2923 245.02 49.3761C244.288 48.1976 243.16 47.6093 241.644 47.6093C240.26 47.6093 239.132 48.1837 238.271 49.3364C237.566 50.2526 237.146 51.3516 237.017 52.6315H245.843V52.6335Z" fill="white"/>
<path d="M104.594 21.4521C104.594 23.7914 103.893 25.5521 102.492 26.7347C101.194 27.8259 99.3497 28.3724 96.9608 28.3724C95.7763 28.3724 94.7627 28.3207 93.9141 28.2173V15.4363C95.0211 15.2574 96.2136 15.166 97.5013 15.166C99.777 15.166 101.492 15.6609 102.649 16.6506C103.945 17.7694 104.594 19.3694 104.594 21.4521ZM102.398 21.5098C102.398 19.9933 101.997 18.8307 101.194 18.0199C100.391 17.2111 99.2185 16.8056 97.6743 16.8056C97.0185 16.8056 96.46 16.8493 95.9969 16.9407V26.6573C96.2532 26.697 96.7223 26.7149 97.404 26.7149C98.9979 26.7149 100.228 26.2716 101.095 25.3853C101.961 24.4989 102.398 23.2071 102.398 21.5098V21.5098Z" fill="white"/>
<path d="M116.236 23.493C116.236 24.9338 115.825 26.1144 115.002 27.0406C114.14 27.9925 112.997 28.4676 111.57 28.4676C110.195 28.4676 109.1 28.0124 108.283 27.0982C107.468 26.1859 107.061 25.0353 107.061 23.648C107.061 22.1972 107.48 21.0067 108.323 20.0825C109.165 19.1585 110.298 18.6953 111.725 18.6953C113.1 18.6953 114.205 19.1506 115.042 20.0627C115.837 20.9491 116.236 22.0938 116.236 23.493V23.493ZM114.076 23.5606C114.076 22.696 113.889 21.9547 113.518 21.3367C113.08 20.5894 112.458 20.2158 111.65 20.2158C110.813 20.2158 110.177 20.5894 109.74 21.3367C109.366 21.9547 109.181 22.708 109.181 23.5984C109.181 24.4628 109.368 25.2041 109.74 25.8223C110.191 26.5696 110.819 26.9432 111.63 26.9432C112.425 26.9432 113.049 26.5636 113.498 25.8023C113.883 25.1724 114.076 24.425 114.076 23.5606Z" fill="white"/>
<path d="M131.852 18.8867L128.92 28.2555H127.012L125.798 24.1871C125.49 23.1716 125.239 22.162 125.045 21.1603H125.007C124.826 22.1898 124.575 23.1974 124.253 24.1871L122.964 28.2555H121.034L118.277 18.8867H120.418L121.477 23.3405C121.733 24.3939 121.944 25.3975 122.113 26.3476H122.151C122.306 25.5645 122.562 24.5668 122.924 23.3604L124.253 18.8887H125.951L127.225 23.2651C127.533 24.3322 127.783 25.3598 127.976 26.3495H128.034C128.175 25.3856 128.387 24.3581 128.669 23.2651L129.806 18.8887H131.852V18.8867Z" fill="white"/>
<path d="M142.645 28.2549H140.562V22.8888C140.562 21.2354 139.935 20.4086 138.674 20.4086C138.056 20.4086 137.557 20.6352 137.17 21.0903C136.787 21.5454 136.591 22.082 136.591 22.6961V28.2528H134.509V21.5632C134.509 20.7405 134.483 19.8481 134.434 18.8823H136.264L136.362 20.3469H136.419C136.662 19.8918 137.023 19.5162 137.498 19.2161C138.063 18.8664 138.694 18.6895 139.386 18.6895C140.261 18.6895 140.988 18.9717 141.566 19.5381C142.286 20.2317 142.645 21.2672 142.645 22.6424V28.2549Z" fill="white"/>
<path d="M148.391 28.2553H146.311V14.5879H148.391V28.2553Z" fill="white"/>
<path d="M160.655 23.493C160.655 24.9338 160.243 26.1144 159.42 27.0406C158.559 27.9925 157.414 28.4676 155.988 28.4676C154.611 28.4676 153.516 28.0124 152.701 27.0982C151.887 26.1859 151.479 25.0353 151.479 23.648C151.479 22.1972 151.898 21.0067 152.74 20.0825C153.584 19.1585 154.717 18.6953 156.142 18.6953C157.518 18.6953 158.621 19.1506 159.461 20.0627C160.256 20.9491 160.655 22.0938 160.655 23.493ZM158.492 23.5606C158.492 22.696 158.306 21.9547 157.934 21.3367C157.499 20.5894 156.874 20.2158 156.067 20.2158C155.229 20.2158 154.593 20.5894 154.158 21.3367C153.785 21.9547 153.6 22.708 153.6 23.5984C153.6 24.4628 153.786 25.2041 154.158 25.8223C154.609 26.5696 155.237 26.9432 156.048 26.9432C156.843 26.9432 157.465 26.5636 157.915 25.8023C158.302 25.1724 158.492 24.425 158.492 23.5606Z" fill="white"/>
<path d="M170.733 28.2548H168.862L168.708 27.1756H168.649C168.009 28.0362 167.098 28.4676 165.913 28.4676C165.029 28.4676 164.313 28.1834 163.775 27.6189C163.286 27.1061 163.041 26.4681 163.041 25.711C163.041 24.5662 163.518 23.6937 164.478 23.0896C165.436 22.4853 166.784 22.1893 168.519 22.2032V22.0282C168.519 20.7941 167.871 20.178 166.573 20.178C165.648 20.178 164.834 20.4105 164.131 20.8716L163.707 19.5042C164.578 18.9657 165.652 18.6953 166.921 18.6953C169.369 18.6953 170.597 19.9872 170.597 22.5708V26.021C170.597 26.957 170.643 27.7023 170.733 28.2548V28.2548ZM168.57 25.0353V23.5904C166.273 23.5507 165.124 24.1806 165.124 25.4784C165.124 25.9674 165.256 26.3331 165.523 26.5775C165.792 26.8219 166.133 26.9432 166.541 26.9432C166.999 26.9432 167.425 26.7981 167.815 26.5098C168.206 26.2198 168.447 25.852 168.536 25.401C168.558 25.2995 168.57 25.1763 168.57 25.0353Z" fill="white"/>
<path d="M182.568 28.2553H180.72L180.623 26.7509H180.564C179.975 27.8957 178.969 28.4681 177.556 28.4681C176.427 28.4681 175.487 28.0248 174.742 27.1385C173.997 26.252 173.625 25.1014 173.625 23.6884C173.625 22.1719 174.028 20.9436 174.839 20.0056C175.625 19.1311 176.586 18.6939 177.732 18.6939C178.99 18.6939 179.87 19.1172 180.37 19.9659H180.411V14.5879H182.495V25.7313C182.495 26.6436 182.519 27.4842 182.568 28.2553V28.2553ZM180.411 24.3043V22.7423C180.411 22.472 180.39 22.2534 180.352 22.0864C180.235 21.5855 179.983 21.1643 179.6 20.8245C179.211 20.4846 178.744 20.3137 178.206 20.3137C177.429 20.3137 176.82 20.6218 176.373 21.2398C175.93 21.8579 175.706 22.6469 175.706 23.6108C175.706 24.5369 175.918 25.2882 176.346 25.8665C176.797 26.4826 177.406 26.7907 178.166 26.7907C178.85 26.7907 179.396 26.5342 179.812 26.0196C180.214 25.5445 180.411 24.9722 180.411 24.3043V24.3043Z" fill="white"/>
<path d="M200.383 23.493C200.383 24.9338 199.972 26.1144 199.149 27.0406C198.286 27.9925 197.145 28.4676 195.716 28.4676C194.344 28.4676 193.249 28.0124 192.43 27.0982C191.615 26.1859 191.207 25.0353 191.207 23.648C191.207 22.1972 191.627 21.0067 192.469 20.0825C193.311 19.1585 194.444 18.6953 195.874 18.6953C197.247 18.6953 198.354 19.1506 199.188 20.0627C199.983 20.9491 200.383 22.0938 200.383 23.493ZM198.225 23.5606C198.225 22.696 198.038 21.9547 197.667 21.3367C197.227 20.5894 196.607 20.2158 195.796 20.2158C194.962 20.2158 194.325 20.5894 193.886 21.3367C193.512 21.9547 193.328 22.708 193.328 23.5984C193.328 24.4628 193.515 25.2041 193.886 25.8223C194.337 26.5696 194.965 26.9432 195.776 26.9432C196.572 26.9432 197.197 26.5636 197.646 25.8023C198.03 25.1724 198.225 24.425 198.225 23.5606V23.5606Z" fill="white"/>
<path d="M211.582 28.2549H209.501V22.8888C209.501 21.2354 208.873 20.4086 207.611 20.4086C206.993 20.4086 206.493 20.6352 206.107 21.0903C205.723 21.5454 205.53 22.082 205.53 22.6961V28.2528H203.444V21.5632C203.444 20.7405 203.421 19.8481 203.371 18.8823H205.2L205.297 20.3469H205.355C205.599 19.8918 205.96 19.5162 206.433 19.2161C207 18.8664 207.63 18.6895 208.324 18.6895C209.196 18.6895 209.923 18.9717 210.502 19.5381C211.223 20.2317 211.582 21.2672 211.582 22.6424V28.2549Z" fill="white"/>
<path d="M225.599 20.4481H223.304V24.9993C223.304 26.1559 223.712 26.7343 224.519 26.7343C224.893 26.7343 225.202 26.7025 225.447 26.6369L225.501 28.2168C225.089 28.372 224.549 28.4494 223.883 28.4494C223.06 28.4494 222.42 28.199 221.958 27.6981C221.492 27.1974 221.261 26.3547 221.261 25.1721V20.4481H219.893V18.888H221.261V17.1708L223.303 16.5547V18.886H225.596V20.4481H225.599Z" fill="white"/>
<path d="M236.624 28.2553H234.54V22.9291C234.54 21.2497 233.911 20.409 232.653 20.409C231.687 20.409 231.028 20.8959 230.667 21.8697C230.604 22.0745 230.569 22.325 230.569 22.6191V28.2534H228.488V14.5879H230.569V20.2342H230.609C231.265 19.2066 232.205 18.6939 233.423 18.6939C234.286 18.6939 234.999 18.9761 235.566 19.5426C236.271 20.2481 236.624 21.2974 236.624 22.6847V28.2553Z" fill="white"/>
<path d="M247.999 23.1275C247.999 23.5011 247.972 23.8152 247.922 24.0716H241.675C241.702 24.9978 242.001 25.7033 242.58 26.1922C243.108 26.6294 243.789 26.848 244.624 26.848C245.548 26.848 246.392 26.701 247.15 26.4048L247.476 27.8516C246.588 28.2372 245.543 28.43 244.332 28.43C242.881 28.43 241.739 28.0027 240.912 27.1481C240.081 26.2935 239.67 25.1468 239.67 23.7079C239.67 22.2949 240.053 21.1183 240.826 20.1802C241.633 19.1786 242.724 18.6777 244.101 18.6777C245.449 18.6777 246.472 19.1786 247.165 20.1802C247.723 20.9752 247.999 21.9589 247.999 23.1275V23.1275ZM246.011 22.589C246.028 21.9709 245.89 21.4382 245.608 20.9891C245.247 20.4107 244.696 20.1206 243.951 20.1206C243.271 20.1206 242.717 20.4027 242.293 20.9692C241.947 21.4204 241.743 21.9589 241.675 22.589H246.011Z" fill="white"/>
</g>
<defs>
<clipPath id="clip0_186_731">
<rect width="281.591" height="83.4342" fill="white" transform="translate(0.00390625 0.595703)"/>
</clipPath>
</defs>
</svg>
