<svg width="140" height="136" viewBox="0 0 140 136" fill="none" xmlns="http://www.w3.org/2000/svg">
<path d="M43.9142 115.277L102.561 68.1109L80.1911 58.818L97.3 20.0734L38.6535 67.2394L61.0231 76.5323L43.9142 115.277ZM42.9133 129.534C34.072 125.861 26.4823 120.781 20.1442 114.294C13.8043 107.811 8.99015 100.585 5.70164 92.6164C2.41313 84.6476 0.757483 76.1955 0.734701 67.2602C0.707657 58.3231 2.58752 49.5668 6.37429 40.9913C10.1611 32.4159 15.3985 25.0544 22.0866 18.9069C28.7705 12.7577 36.2203 8.08828 44.4362 4.89865C52.6521 1.70903 61.3671 0.101105 70.5813 0.0748751C79.7936 0.0527782 88.8205 1.87818 97.6618 5.55108C106.503 9.22398 114.094 14.3019 120.434 20.7847C126.772 27.2717 131.585 34.4996 134.873 42.4684C138.162 50.4372 139.818 58.8893 139.84 67.8246C139.867 76.7617 137.988 85.518 134.201 94.0935C130.414 102.669 125.177 110.03 118.489 116.178C111.805 122.327 104.355 126.997 96.1389 130.186C87.923 133.376 79.2089 134.982 69.9966 135.004C60.7824 135.03 51.7546 133.207 42.9133 129.534Z" fill="url(#paint0_linear_272_1389)"/>
<path d="M43.9142 115.277L102.561 68.1109L80.1911 58.818L97.3 20.0734L38.6535 67.2394L61.0231 76.5323L43.9142 115.277ZM42.9133 129.534C34.072 125.861 26.4823 120.781 20.1442 114.294C13.8043 107.811 8.99015 100.585 5.70164 92.6164C2.41313 84.6476 0.757483 76.1955 0.734701 67.2602C0.707657 58.3231 2.58752 49.5668 6.37429 40.9913C10.1611 32.4159 15.3985 25.0544 22.0866 18.9069C28.7705 12.7577 36.2203 8.08828 44.4362 4.89865C52.6521 1.70903 61.3671 0.101105 70.5813 0.0748751C79.7936 0.0527782 88.8205 1.87818 97.6618 5.55108C106.503 9.22398 114.094 14.3019 120.434 20.7847C126.772 27.2717 131.585 34.4996 134.873 42.4684C138.162 50.4372 139.818 58.8893 139.84 67.8246C139.867 76.7617 137.988 85.518 134.201 94.0935C130.414 102.669 125.177 110.03 118.489 116.178C111.805 122.327 104.355 126.997 96.1389 130.186C87.923 133.376 79.2089 134.982 69.9966 135.004C60.7824 135.03 51.7546 133.207 42.9133 129.534Z" fill="white"/>
<defs>
<linearGradient id="paint0_linear_272_1389" x1="97.6618" y1="5.55108" x2="45.6792" y2="130.683" gradientUnits="userSpaceOnUse">
<stop stop-color="#50FFAE"/>
<stop offset="1" stop-color="#52FDD1"/>
</linearGradient>
</defs>
</svg>
