<svg width="92" height="85" viewBox="0 0 92 85" fill="none" xmlns="http://www.w3.org/2000/svg">
<path d="M87.6667 50.834H83.5001C83.5001 34.709 70.4584 21.6673 54.3334 21.6673H50.1667V16.3757C52.6667 14.959 54.3334 12.2507 54.3334 9.16732C54.3334 4.58398 50.6251 0.833984 46.0001 0.833984C41.3751 0.833984 37.6667 4.58398 37.6667 9.16732C37.6667 12.2507 39.3334 14.959 41.8334 16.3757V21.6673H37.6667C21.5417 21.6673 8.50008 34.709 8.50008 50.834H4.33341C2.04175 50.834 0.166748 52.709 0.166748 55.0007V67.5007C0.166748 69.7923 2.04175 71.6673 4.33341 71.6673H8.50008V75.834C8.50008 80.459 12.2501 84.1673 16.8334 84.1673H75.1667C79.7917 84.1673 83.5001 80.459 83.5001 75.834V71.6673H87.6667C89.9584 71.6673 91.8334 69.7923 91.8334 67.5007V55.0007C91.8334 52.709 89.9584 50.834 87.6667 50.834ZM36.7917 61.2507C35.1667 57.584 31.5417 55.0007 27.2501 55.0007C22.9584 55.0007 19.3334 57.584 17.7084 61.2507C17.1667 59.959 16.8334 58.584 16.8334 57.084C16.8334 51.334 21.5001 46.6673 27.2501 46.6673C33.0001 46.6673 37.6667 51.334 37.6667 57.084C37.6667 58.584 37.3334 59.959 36.7917 61.2507ZM74.2917 61.2507C72.6667 57.584 68.9167 55.0007 64.7501 55.0007C60.5834 55.0007 56.8334 57.584 55.2084 61.2507C54.6667 59.959 54.3334 58.584 54.3334 57.084C54.3334 51.334 59.0001 46.6673 64.7501 46.6673C70.5001 46.6673 75.1667 51.334 75.1667 57.084C75.1667 58.584 74.8334 59.959 74.2917 61.2507Z" fill="#FFC709"/>
</svg>
