<svg width="1234" height="357" viewBox="0 0 1234 357" fill="none" xmlns="http://www.w3.org/2000/svg">
<rect x="0.633789" width="1232.73" height="356.5" rx="7.5" fill="#1A468F"/>
<rect x="0.633789" width="1232.73" height="356.5" rx="7.5" fill="#00AEBD"/>
<path d="M771.002 104.696C767.627 105.173 764.76 106.477 762.531 108.545C755.079 115.511 758.359 127.473 768.455 130.113C770.811 130.717 775.238 130.717 777.436 130.145C782.34 128.84 785.907 125.532 787.213 121.078C789.187 114.398 784.951 107.304 777.85 105.332C775.939 104.823 772.531 104.505 771.002 104.696Z" fill="white"/>
<path d="M197.593 175.764V246.703H268.771H339.95V175.764V104.824H268.771H197.593V175.764ZM249.185 192.178V203.503L250.969 201.881C252.943 200.068 256.988 197.968 259.854 197.236C262.274 196.632 268.389 196.632 271.319 197.236C277.816 198.604 282.115 202.771 284.122 209.643C284.599 211.297 284.695 213.46 284.79 226.726L284.886 241.931H281.223H277.529V227.998C277.529 213.015 277.465 212.156 275.809 208.911C274.758 206.875 272.625 204.966 270.332 204.044C268.676 203.376 267.943 203.28 264.153 203.28C260.395 203.28 259.631 203.376 258.007 204.012C254.535 205.412 251.478 208.466 250.109 211.933C249.344 213.746 249.344 213.905 249.249 227.839L249.153 241.931H245.523H241.86V211.392V180.853H245.523H249.185V192.178ZM216.765 191.415L216.86 197.873L224.599 197.968L232.306 198.032V201.054V204.076L224.599 204.139L216.86 204.235L216.765 215.051C216.669 229.207 217.083 231.911 219.917 234.424C221.733 236.078 223.644 236.523 229.185 236.523H233.898V239.546V242.568H228.261C224.567 242.568 221.828 242.409 220.427 242.09C216.382 241.232 213.325 238.941 211.573 235.505C209.758 231.943 209.631 230.829 209.472 216.864L209.312 204.076H205.522H201.733V201.245V198.445L205.204 197.873C207.115 197.586 208.803 197.236 208.994 197.109C209.249 196.95 211.287 186.357 211.287 185.18C211.287 185.084 212.497 184.989 213.994 184.989H216.701L216.765 191.415ZM324.504 197.809C333.039 200.608 337.211 206.939 335.364 214.255C334.377 218.168 331.701 220.872 327.498 222.304C325.587 222.94 324.727 222.972 312.497 223.099C305.332 223.163 299.504 223.322 299.504 223.449C299.504 224.085 300.873 227.553 301.638 228.857C303.644 232.293 307.497 235.251 311.447 236.396C315.077 237.478 321.001 236.937 324.281 235.283C324.95 234.965 326.383 234.01 327.466 233.183L329.472 231.656L330.778 232.897C331.478 233.597 332.338 234.551 332.72 235.06L333.389 235.983L331.861 237.351C325.013 243.554 313.612 245.017 305.141 240.786C299.408 237.923 295.427 233.342 293.23 227.107C292.434 224.817 292.37 224.212 292.37 219.981C292.37 215.751 292.434 215.146 293.23 212.856C295.969 205.094 301.924 199.495 309.695 197.395C311.733 196.855 312.848 196.759 317.02 196.886C321.287 196.982 322.306 197.109 324.504 197.809Z" fill="white"/>
<path d="M311.828 203.281C307.274 204.521 302.943 208.18 300.968 212.379C300.363 213.683 299.758 215.274 299.631 215.942L299.44 217.15L311.478 217.055C322.274 216.96 323.675 216.896 324.822 216.387C328.102 214.892 329.663 211.456 328.357 208.434C327.37 206.08 324.185 203.949 320.586 203.153C318.357 202.676 313.739 202.74 311.828 203.281Z" fill="white"/>
<path d="M405.873 111.059C395.332 112.268 388.166 114.272 381.733 117.835C373.771 122.225 368.357 128.587 365.65 136.699C362.529 146.02 362.561 156.136 365.777 162.434C369.121 169.115 373.898 173.473 382.147 177.386C388.707 180.472 393.453 181.903 409.217 185.498C428.103 189.792 436.383 193.801 439.504 200.099C440.491 202.135 440.682 202.835 440.841 205.316C441.415 215.814 435.013 222.654 422.625 224.753C407.943 227.203 392.402 224.371 371.86 215.464C369.026 214.224 366.637 213.269 366.574 213.333C366.446 213.492 359.026 233.056 358.962 233.469C358.835 234.137 367.179 238.114 373.389 240.341C397.179 248.866 425.459 248.739 443.644 240.023C458.485 232.897 466.16 220.395 465.3 204.712C464.759 195.168 461.829 188.297 455.746 182.317C449.536 176.209 441.988 172.646 426.892 168.797C423.485 167.938 418.453 166.856 415.746 166.379C402.083 164.089 395.873 161.957 391.606 158.076C388.899 155.627 387.657 153.082 387.465 149.551C387.211 144.875 388.58 141.153 391.701 138.035C397.402 132.309 409.567 130.273 423.676 132.691C431.542 134.027 443.326 137.59 450.937 140.93C453.23 141.916 455.268 142.743 455.491 142.775C455.81 142.807 456.988 139.721 459.249 133.136C461.064 127.792 462.561 123.338 462.561 123.211C462.561 122.988 455.268 119.871 449.822 117.771C442.625 115.004 435.682 113.063 428.325 111.791C425.204 111.218 422.943 111.091 415.746 111.027C410.937 110.963 406.478 110.995 405.873 111.059Z" fill="white"/>
<path d="M497.593 118.725C497.402 119.393 495.842 125.151 494.154 131.513L491.065 143.093L484.854 144.81C481.447 145.733 477.88 146.719 476.988 147.005L475.3 147.483V156.517V165.583H483.389H491.479L491.638 189.187C491.733 209.26 491.861 213.3 492.307 216.004C494.727 230.574 502.02 239.577 514.154 242.853C519.472 244.317 522.275 244.539 535.906 244.698L548.867 244.857V242.058C548.867 240.499 548.963 236.109 549.09 232.292L549.281 225.389H539.536C528.549 225.389 526.192 225.102 523.071 223.448C519.727 221.667 517.243 218.327 515.874 213.746C515.364 212.028 515.3 209.801 515.205 188.71L515.078 165.583H530.715H546.32V155.404V145.224H530.715H515.109V131.386V117.548H506.511H497.944L497.593 118.725Z" fill="white"/>
<path d="M690.875 117.613C690.875 117.676 689.314 123.434 687.467 130.401L684.059 143.094L677.849 144.811C674.441 145.734 670.875 146.72 669.983 146.975L668.295 147.484V156.518V165.584H676.384H684.473L684.633 189.507C684.76 212.315 684.792 213.62 685.461 217.055C688.295 232.198 696.193 240.723 709.919 243.491C714.919 244.509 719.665 244.795 731.13 244.795H741.862V239.61C741.862 236.778 741.958 232.42 742.085 229.907L742.276 225.39H732.531C721.862 225.39 719.251 225.104 716.289 223.64C712.881 221.922 710.238 218.423 708.836 213.779C708.327 212.029 708.263 209.739 708.168 188.711L708.072 165.584H723.709H739.314V155.405V145.225H723.709H708.104V131.387V117.549H699.505C694.792 117.549 690.906 117.581 690.875 117.613Z" fill="white"/>
<path d="M853.996 139.181C852.69 139.372 851.576 139.563 851.48 139.658C851.384 139.754 851.798 142.649 852.404 146.084L853.486 152.383L854.92 152.224C856.767 152.033 864.856 152.033 866.703 152.224L868.136 152.383L869.155 146.816C870.461 139.595 870.461 139.626 869.187 139.372C867.276 139.022 856.384 138.895 853.996 139.181Z" fill="white"/>
<path d="M602.243 142.711C580.333 144.779 565.969 156.168 564.568 172.423L564.377 174.809H576.224C587.434 174.809 588.04 174.777 588.04 174.237C588.04 171.31 591.798 166.92 596.001 164.884C598.836 163.516 601.989 162.562 605.237 162.053C608.581 161.544 615.81 161.862 619.218 162.721C626.957 164.63 632.18 169.179 633.231 174.936C633.422 175.986 633.581 178.817 633.581 181.267V185.689L620.142 185.466C610.97 185.307 605.078 185.339 601.734 185.593C584.855 186.834 575.237 190.11 568.422 196.918C565.428 199.908 563.517 203.344 562.689 207.257C561.925 210.883 562.243 219.123 563.294 223.163C566.16 234.169 573.676 241.613 584.791 244.508C600.587 248.612 620.842 244.254 634.568 233.851L636.002 232.738L636.957 238.209L637.881 243.681H647.435H656.989V207.575V171.469L656.288 168.701C655.333 164.948 654.346 162.625 652.435 159.667C646.893 151.046 636.033 145.256 621.415 143.157C617.307 142.552 606.415 142.298 602.243 142.711ZM629.696 202.072L633.581 202.262V207.67C633.581 214.16 633.358 214.764 629.887 218.264C620.587 227.616 599.823 230.575 590.683 223.831C588.04 221.89 586.129 217.85 586.129 214.255C586.129 211.615 586.957 209.547 588.772 207.766C591.957 204.648 597.116 202.931 605.874 202.072C608.008 201.849 625.842 201.849 629.696 202.072Z" fill="white"/>
<path d="M982.15 142.553C971.195 144.144 961.768 147.961 954.698 153.687C953.965 154.291 953.233 154.769 953.074 154.769C952.914 154.769 952.437 152.669 952.023 150.06L951.258 145.384H941.704H932.15V194.533V243.682H943.774H955.398L955.589 215.528C955.749 190.016 955.812 187.153 956.322 184.989C957.66 179.422 960.048 174.842 963.647 171.088C967.246 167.27 971.035 165.012 976.099 163.644C979.793 162.626 987.023 162.626 991.036 163.612C998.106 165.362 1002.85 169.688 1005.4 176.75C1007.34 182.158 1007.25 180.568 1007.44 213.461L1007.63 243.682H1019.41H1031.19V214.097C1031.19 183.049 1031.16 181.904 1029.73 174.842C1026.1 156.964 1015.56 146.498 997.915 143.316C994.411 142.68 984.539 142.203 982.15 142.553Z" fill="white"/>
<path d="M761.034 194.437L761.13 243.681L772.849 243.776L784.537 243.84V194.532V145.224H772.754H760.97L761.034 194.437Z" fill="white"/>
<path d="M830.525 148.087C826.99 150.473 822.691 154.163 820.684 156.485C819.378 158.044 819.219 158.362 819.601 158.712C820.302 159.412 828.296 166.06 828.678 166.315C828.869 166.41 830.302 165.265 831.863 163.738C833.423 162.211 835.971 160.112 837.5 159.094C840.111 157.312 840.238 157.153 839.856 156.549C839.601 156.167 838.168 153.686 836.608 151.013C835.079 148.373 833.71 146.178 833.582 146.178C833.423 146.178 832.054 147.037 830.525 148.087Z" fill="white"/>
<path d="M884.729 151.524C883.041 154.451 881.671 156.996 881.703 157.155C881.703 157.346 882.818 158.173 884.155 159.063C885.493 159.922 887.977 161.99 889.665 163.612L892.754 166.539L897.563 162.531C900.206 160.304 902.372 158.332 902.372 158.173C902.372 157.727 898.327 153.624 895.684 151.46C893.073 149.265 888.614 146.18 888.136 146.18C887.945 146.18 886.417 148.597 884.729 151.524Z" fill="white"/>
<path d="M808.933 176.972C807.722 180.79 806.863 185.593 806.608 189.633L806.417 193.26H812.977H819.57V191.478C819.57 189.092 820.079 185.752 821.066 182.03C821.512 180.312 821.831 178.881 821.767 178.817C821.672 178.754 814.187 176.018 810.111 174.586C809.888 174.491 809.442 175.414 808.933 176.972Z" fill="white"/>
<path d="M905.716 176.654C902.563 177.799 899.952 178.754 899.888 178.817C899.825 178.849 900.143 180.153 900.589 181.68C901.417 184.671 901.926 187.534 902.245 191.097L902.436 193.26H908.933C912.5 193.26 915.43 193.164 915.43 193.005C915.398 191.542 914.665 184.925 914.315 183.048C913.551 178.913 912.181 174.459 911.704 174.523C911.544 174.523 908.869 175.477 905.716 176.654Z" fill="white"/>
<path d="M815.525 209.421C810.334 211.33 809.729 211.616 809.888 212.189C809.983 212.539 811.034 214.829 812.276 217.279C814.251 221.287 818.327 227.585 819.124 227.84C819.283 227.904 821.417 226.281 823.869 224.245C829.824 219.346 829.378 219.823 828.582 218.965C827.245 217.501 824.06 212.221 823.041 209.771C822.468 208.403 821.862 207.258 821.671 207.29C821.48 207.29 818.71 208.244 815.525 209.421Z" fill="white"/>
<path d="M898.869 209.358C898.359 210.503 897.914 211.521 897.914 211.584C897.914 211.903 895.366 215.974 894.187 217.533C893.423 218.519 892.786 219.474 892.722 219.633C892.659 219.919 901.958 227.936 902.372 227.936C903.168 227.936 907.691 221.16 909.856 216.706C912.531 211.139 912.914 211.903 906.289 209.517C903.168 208.403 900.461 207.417 900.238 207.354C900.016 207.258 899.442 208.085 898.869 209.358Z" fill="white"/>
<path d="M836.767 234.456C834.983 237.542 833.582 240.118 833.646 240.182C834.092 240.659 840.684 243.618 843.009 244.413C846.289 245.558 851.13 246.767 851.385 246.513C851.544 246.354 853.614 235.124 853.646 234.265C853.646 233.883 853.264 233.693 852.372 233.534C849.633 233.088 843.709 230.893 840.238 228.984C840.111 228.921 838.55 231.37 836.767 234.456Z" fill="white"/>
<path d="M879.124 230.161C876.322 231.561 872.786 232.802 869.984 233.374C868.869 233.597 867.978 233.947 867.978 234.138C867.978 234.774 870.111 246.417 870.271 246.544C870.493 246.767 876.449 245.272 879.124 244.285C881.417 243.458 886.799 241.041 887.691 240.404C888.041 240.15 887.5 239.005 885.016 234.742C883.328 231.784 881.831 229.27 881.736 229.143C881.608 229.048 880.43 229.493 879.124 230.161Z" fill="white"/>
</svg>
